<?xml version="1.0" encoding="iso-8859-1"?>
<!-- Generator: Adobe Illustrator 16.0.0, SVG Export Plug-In . SVG Version: 6.00 Build 0)  -->
<!DOCTYPE svg PUBLIC "-//W3C//DTD SVG 1.1//EN" "http://www.w3.org/Graphics/SVG/1.1/DTD/svg11.dtd">
<svg version="1.1" id="Capa_1" xmlns="http://www.w3.org/2000/svg" xmlns:xlink="http://www.w3.org/1999/xlink" x="0px" y="0px"
	 width="571.052px" height="571.053px" viewBox="0 0 571.052 571.053" style="enable-background:new 0 0 571.052 571.053;"
	 xml:space="preserve">
<g>
	<g>
		<path d="M438.396,281.067c-0.67-10.982-10.291-16.23-15.086-25.107c8.207-4.085,14.003-4.024,23.128-4.024
			c0-3.959-14.321-3.896-17.084-3.017c0,2.182-10.05,2.604-10.05,5.015c-6.661,2.182-20.104-4.363-20.104-11.046
			c-2.788,0-2.396-12.069-6.044-12.069c0-6.805-6.025-11.906-8.023-18.082c-1.661-0.848-14.082-16.894-14.082-19.104
			c2.182,0.992,2.834,1.75,6.025,2.014c0-0.884-11.398-12.05-10.043-12.05c0-2.956-3.018-6.111-3.018-9.048
			c-12.555-6.279-1.783-13.709,0-22.124c10.579,2.164,15.312,26.145,19.089,26.145c-0.03-2.897-0.942-16.092-5.01-16.092
			c-0.93-3.635-6.267-13.072-11.059-13.072c0-7.886,20.099-9,20.099-13.057c1.737,0,3.375-0.266,4.976-0.624
			c-1.23,3.953-1.935,7.301-0.353,10.034c0.156,0.269,0.456,0.288,0.612,0.021c0.135-0.226,0.238-0.465,0.324-0.725
			c0.098-0.293,0.26-0.315,0.397-0.037c0.731,1.49,2.424,4.872,4.386,6.377c0.244,0.19,0.495,0.067,0.538-0.239
			c0.027-0.196,0.052-0.422,0.07-0.713c0.019-0.309,0.172-0.361,0.37-0.123c1.328,1.573,3.593,3.421,5.003,4.055
			c0.282,0.128,0.594-0.055,0.628-0.364c0.012-0.107,0.021-0.223,0.027-0.343c0.013-0.309,0.184-0.395,0.438-0.217
			c1.387,0.985,4.636,2.717,6.117,3.105c0.3,0.08,0.686-0.141,0.771-0.438c0.417-1.472,0.582-5.15,0.435-6.845
			c-0.027-0.309,0.135-0.413,0.407-0.269c0.107,0.058,0.211,0.107,0.31,0.153c0.281,0.128,0.597-0.046,0.63-0.355
			c0.172-1.539-0.27-4.428-0.948-6.371c-0.102-0.293,0.019-0.397,0.294-0.257c0.257,0.132,0.465,0.224,0.648,0.3
			c0.287,0.12,0.52-0.034,0.48-0.339c-0.3-2.458-2.351-5.634-3.262-7.02c-0.172-0.26-0.067-0.392,0.235-0.324
			c0.275,0.062,0.529,0.092,0.789,0.092c0.31,0,0.447-0.266,0.294-0.539c-0.927-1.643-2.484-2.665-4.428-3.439
			c1.582-0.336,3.207-0.587,4.941-0.587c0-1.224,17.299-3.021,20.107-3.021c2.286,1.289,4.018,8.247,4.018,10.062
			c3.063,0,1.356,11.041,4.006,11.041c1.041,3.268-0.416,7.243,2.02,10.055c-1.466,2.509-3.412,4.039-4.018,7.041
			c3.243-0.386,2.932-0.912,5.037-2.007c1.539,3.687,1.062,7.497,4.676,9.664c-0.358-3.219-8.048-47.143-9.71-46.858
			c5.126-0.884,6.857-2.007,12.044-2.007c1.864,5.432,6.298,6.87,8.051,12.062c0.579,1.72,7.054,15.086,7.041,15.086
			c-0.149,4.743-1.303,6.337-2.007,10.037c2.956-0.79,2.91-2.258,5.016-4.024c1.392,2.54,2.766,6.031,5.039,6.031
			c-1.126-6.539-5.691-10.578-6.545-16.582c-0.248-1.76-2.5-8.553-3.51-8.553c-2.308-9.006-5.563-13.847-8.045-21.102
			c3.36-2.922,7.855-10.395,9.039-14.061c2.586,0,4.064-4.07,6.044-6.031c11.469,0,11.787,25.12,17.065,25.12
			c-0.235-12.448-5.505-19.768-11.034-28.137c12.454-5.6,8.391,4.272,18.075,7.041c-0.997-5.34-4.271-10.382-9.039-13.072
			c0.842-3.562,2.873-6.27,3.014-10.055c-3.626,0.976-3.855,3.85-6.024,6.031c0-5.413-10.251-0.884-14.076-2.007
			c0-3.36-21.42-3.048-25.529-2.99c-3.578,0.067-7.146,0.245-10.689,0.582c3.366-4.345,5.906-8.103,5.193-12.136
			c-0.067-0.374-0.401-0.518-0.691-0.279c-0.248,0.205-0.466,0.435-0.674,0.695c-0.235,0.297-0.431,0.251-0.471-0.123
			c-0.215-2.01-0.747-6.588-2.365-9.128c-0.202-0.318-0.539-0.285-0.717,0.052c-0.113,0.214-0.235,0.462-0.379,0.786
			c-0.15,0.346-0.346,0.34-0.478-0.012c-0.866-2.353-2.687-5.41-4.039-6.726c-0.272-0.263-0.701-0.184-0.869,0.156
			c-0.058,0.119-0.116,0.245-0.171,0.383c-0.145,0.349-0.377,0.376-0.591,0.064c-1.175-1.705-4.177-5.04-5.71-6.102
			c-0.31-0.214-0.845-0.125-1.065,0.181c-1.089,1.511-2.809,5.655-3.348,7.656c-0.098,0.364-0.327,0.419-0.578,0.138
			c-0.098-0.11-0.195-0.211-0.29-0.303c-0.272-0.263-0.704-0.196-0.869,0.144c-0.836,1.689-1.533,5.18-1.567,7.687
			c-0.006,0.376-0.187,0.447-0.443,0.171c-0.242-0.257-0.44-0.45-0.615-0.612c-0.278-0.257-0.605-0.18-0.691,0.19
			c-0.68,2.938,0.346,7.427,0.811,9.394c0.089,0.367-0.085,0.478-0.403,0.275c-0.291-0.184-0.569-0.324-0.866-0.435
			c-0.355-0.128-0.621,0.12-0.56,0.493c0.667,4.011,4.308,6.643,8.873,9.611c-1.499,0.361-2.989,0.747-4.474,1.196
			c-4.93,0-15.884,0.71-18.1,5.028c-6.417,2.148-12.203,10.055-18.078,10.055c-2.365,2.971-10.643,15.064-12.075,15.064
			c0,1.673-2.665,8.044-4.006,8.044c-1.902,7.476-7.658,10.055-10.063,17.078c-1.692,0-5.738,8.17-8.758,11.791
			c0.244-1.089,0.41-2.127,0.397-2.883c-0.003-0.355-0.343-0.587-0.68-0.474c-0.116,0.04-0.241,0.086-0.367,0.138
			c-0.327,0.135-0.498,0-0.435-0.349c0.353-1.913,0.572-6.123,0.261-7.846c-0.064-0.349-0.478-0.643-0.829-0.587
			c-0.41,0.067-0.946,0.211-1.54,0.401c3.593-4.856,6.057-9.238,5.233-13.896c-0.089-0.493-0.533-0.688-0.918-0.367
			c-0.328,0.272-0.618,0.575-0.894,0.921c-0.312,0.392-0.569,0.333-0.625-0.166c-0.284-2.665-0.988-8.73-3.136-12.099
			c-0.27-0.422-0.713-0.376-0.949,0.067c-0.149,0.281-0.314,0.612-0.502,1.043c-0.198,0.459-0.455,0.453-0.63-0.019
			c-1.147-3.118-3.562-7.172-5.355-8.914c-0.357-0.349-0.93-0.242-1.15,0.205c-0.076,0.156-0.156,0.327-0.229,0.505
			c-0.189,0.462-0.499,0.499-0.783,0.085c-1.558-2.261-5.535-6.68-7.567-8.087c-0.413-0.285-1.117-0.166-1.41,0.242
			c-1.444,2.001-3.725,7.497-4.44,10.147c-0.132,0.483-0.432,0.554-0.765,0.181c-0.132-0.147-0.261-0.282-0.386-0.404
			c-0.358-0.349-0.931-0.257-1.153,0.19c-1.108,2.24-2.032,6.867-2.078,10.187c-0.006,0.502-0.248,0.594-0.591,0.227
			c-0.318-0.343-0.581-0.597-0.817-0.811c-0.367-0.339-0.805-0.238-0.918,0.251c-0.899,3.893,0.456,9.844,1.077,12.451
			c0.116,0.486-0.113,0.63-0.535,0.364c-0.386-0.245-0.753-0.432-1.147-0.575c-0.472-0.171-0.823,0.159-0.743,0.655
			c1.01,6.074,7.15,9.761,14.4,14.456c-1.188,1.465-2.179,3.038-2.745,3.957c-0.187,0.303-0.373,0.26-0.45-0.086
			c-0.07-0.315-0.162-0.594-0.287-0.863c-0.15-0.321-0.493-0.333-0.701-0.043c-1.872,2.616-1.683,5.992-0.945,9.973
			c-2.647,4.819-4.529,10.318-6.863,15.278c-2.023,4.296-4.11,8.565-6.228,12.815c-2.39-7.347-4.617-13.333-9.801-15.63
			c-0.459-0.202-0.866,0.055-0.817,0.554c0.043,0.425,0.132,0.835,0.267,1.255c0.149,0.477-0.043,0.661-0.483,0.425
			c-2.369-1.251-7.794-4.058-11.788-4.159c-0.502-0.012-0.71,0.382-0.475,0.823c0.153,0.281,0.33,0.603,0.584,0.998
			c0.27,0.422,0.12,0.63-0.367,0.514c-3.228-0.79-7.938-1.053-10.385-0.542c-0.49,0.104-0.722,0.637-0.471,1.071
			c0.085,0.153,0.184,0.309,0.291,0.471c0.279,0.416,0.135,0.691-0.367,0.698c-2.745,0.027-8.632,0.86-10.937,1.756
			c-0.468,0.181-0.762,0.835-0.59,1.304c0.854,2.316,4.137,7.276,5.937,9.351c0.327,0.379,0.217,0.667-0.279,0.738
			c-0.193,0.027-0.379,0.058-0.551,0.095c-0.49,0.104-0.734,0.627-0.486,1.062c1.239,2.173,4.559,5.523,7.289,7.415
			c0.413,0.285,0.355,0.539-0.141,0.615c-0.462,0.073-0.82,0.15-1.129,0.223c-0.487,0.113-0.646,0.536-0.306,0.903
			c2.724,2.922,8.418,5.123,10.927,6.065c0.468,0.177,0.459,0.447,0,0.648c-0.419,0.184-0.777,0.383-1.117,0.63
			c-0.406,0.294-0.327,0.774,0.129,0.979c4.862,2.221,10.405,0.217,16.971-2.564c-2.179,4.085-4.385,8.158-6.649,12.194
			c-3.274,5.838-6.417,11.964-10.031,17.58c-0.968,1.502-7.736,8.617-7.451,9.994c0.618,2.962-14.41-8.543-15.652-9.721
			c-5.918-5.618-13.244-10.282-20.269-14.93c3.907,0.214,7.157-0.083,9.437-2.151c0.257-0.232,0.202-0.566-0.138-0.67
			c-0.288-0.092-0.579-0.146-0.891-0.18c-0.352-0.037-0.419-0.208-0.144-0.426c1.466-1.153,4.777-3.812,5.937-6.312
			c0.147-0.312-0.055-0.557-0.407-0.529c-0.227,0.018-0.483,0.043-0.811,0.095c-0.349,0.052-0.444-0.101-0.232-0.373
			c1.398-1.827,2.858-4.737,3.194-6.429c0.067-0.34-0.217-0.633-0.569-0.597c-0.123,0.012-0.254,0.03-0.389,0.055
			c-0.349,0.061-0.487-0.107-0.355-0.426c0.734-1.747,1.802-5.707,1.848-7.414c0.009-0.346-0.336-0.713-0.688-0.734
			c-1.744-0.101-5.872,0.603-7.717,1.169c-0.336,0.104-0.496-0.046-0.404-0.379c0.037-0.132,0.064-0.257,0.088-0.376
			c0.067-0.34-0.208-0.64-0.56-0.603c-1.753,0.184-4.844,1.356-6.827,2.564c-0.3,0.181-0.447,0.077-0.361-0.26
			c0.08-0.312,0.125-0.56,0.162-0.777c0.058-0.339-0.171-0.557-0.505-0.443c-2.65,0.915-5.643,3.914-6.943,5.242
			c-0.242,0.248-0.416,0.168-0.422-0.178c-0.006-0.315-0.037-0.6-0.104-0.881c-0.08-0.34-0.413-0.422-0.673-0.19
			c-3.112,2.763-3.005,7.519-2.968,13.271c-9.263-6.61-18.522-13.219-27.785-19.832c4.183-0.633,7.576-1.601,9.479-4.327
			c0.205-0.291,0.08-0.612-0.275-0.643c-0.3-0.027-0.597-0.021-0.909,0.016c-0.352,0.04-0.453-0.12-0.229-0.395
			c1.193-1.478,3.88-4.872,4.492-7.635c0.077-0.346-0.171-0.547-0.508-0.44c-0.217,0.067-0.462,0.15-0.774,0.272
			c-0.331,0.131-0.456-0.003-0.306-0.325c0.989-2.139,1.809-5.379,1.784-7.151c-0.006-0.355-0.343-0.587-0.679-0.475
			c-0.12,0.04-0.242,0.086-0.367,0.138c-0.328,0.138-0.499,0-0.435-0.349c0.352-1.913,0.572-6.123,0.26-7.846
			c-0.064-0.349-0.477-0.643-0.829-0.587c-1.726,0.278-5.624,1.891-7.31,2.861c-0.309,0.177-0.496,0.061-0.475-0.294
			c0.006-0.138,0.009-0.272,0.009-0.395c-0.003-0.355-0.336-0.597-0.673-0.483c-1.68,0.566-4.458,2.42-6.147,4.063
			c-0.254,0.248-0.422,0.174-0.41-0.181c0.012-0.33,0.006-0.59-0.003-0.817c-0.015-0.355-0.285-0.523-0.584-0.333
			c-2.402,1.5-4.703,5.162-5.701,6.778c-0.187,0.303-0.374,0.26-0.45-0.085c-0.071-0.315-0.163-0.594-0.288-0.863
			c-0.15-0.321-0.493-0.334-0.701-0.043c-1.928,2.693-1.667,6.187-0.881,10.324c-3.467-2.476-6.934-4.951-10.404-7.423
			c-18.097-12.917-37.344-28.452-36.212-52.556c0.278-8.896,0.566-17.788,0.841-26.702c0.214-6.775,4.78-7.457,6.188-13.507
			c-1.842,0.526-5.034,1.796-5.034,4.024c-3.014,1.916-7.763,1.05-11.065,1.004c0.352,1.132,1.01,1.921,1.01,3.02
			c2.782-1.343,4.22-0.435,7.041,0c-1.304,11.463-2.61,22.941-3.914,34.407c-0.646,5.661,1.478,9.973-5.242,9.712
			c-3.602-0.125-7.237-0.386-10.786-1.114c-6.019-1.224-10.355-2.8-15.242-2.8c-4.663-1.518-11.221-3.36-16.08-2.014
			c0,1.778-17.084,1.16-17.084,6.038c11.606-0.468,28.626-7.476,38.198,2.007c-7.469,3.464-19.109,13.923-19.109,21.102
			c5.015,0,6.031-9.033,9.054-9.033c-0.339,2.996-0.664,6.013-1.003,9.033c7.075,0,2.39-12.05,7.041-12.05
			c1.166-2.304,8.039-4.905,8.039-7.041c6.956,0,13.409,3.017,20.104,3.017c4.168,5.043,7.209,10.83,12.05,14.079
			c0,2.442,4.605,7.283,6.481,9.731c2.788,3.635,2.558,3.574,2.558,8.351c-5.765,1.206-14.015,9.052-18.079,9.052
			c-3.718,5.569-17.09,11.958-17.09,19.088c-4.612,3.7-7.509,10.741-12.069,13.072c0,4.951-9.143,14.511-3.014,19.095
			c1.888-6.038,2.666-14.544,8.048-18.1c0-1.674,1.649-5.015,4.027-5.015c0.324,5.015,0.664,10.061,0.992,15.07
			c-2.372,0-3.583,4.162-4.012,6.031c2.8-0.293,4.07-3.011,6.025-3.011c0.86,3.418,1.154,12.062,5.021,12.062
			c-0.024-4.716-0.587-13.424-4.012-17.078v-13.58c0-6.16,2.516-6.702,7.02-10.551c6.774-11.243,19.305-14.823,31.166-20.107
			c1.199,3.62,6.27,20.107,2.013,20.107c0,5.443-4.021,13.011-4.021,21.12c1.524,0,8.032-17.886,8.032-21.12
			c3.822,1.27,6.267,5.009,10.067,5.009c5.046,3.002,5.346,9.658,10.049,11.065c-1.056-3.424-3.029-7.273-3.029-10.042
			c-2.13,0-9.627-5.909-11.035-8.039c-5.333,0-5.979-11.756-6.046-16.074c7.512,2.044,15.881,10.083,22.169,14.51
			c9.098,6.408,17.926,13.195,26.454,20.343c9.416,7.889,18.467,16.215,27.115,24.942c3.88,3.914,21.757,18.247,21.757,23.632
			c0,1.72,4.247,11.028,5.021,11.028c-4.018,28.292-4.018,57.301-4.018,85.873c0,12.097-2.007,23.146-2.007,34.174
			c0,13.149-2.111,20.526-2.377,34.275c-0.227,11.895-6.246,27.562-3.036,39.459c2.944,10.921-3.274,18.197-3.663,29.458
			c-0.016,0.48-0.058,1.273-0.116,2.277c-5.248,9.461-7.668,19.761-4.333,30.468c-0.224,1.35-0.441,2.705-0.738,4.019
			c-1.343,2.619-3.874,6.734-7.164,8.252c-2.959,1.365-3.207,3.277-3.084,5.566c-2.402,2.191-4.079,5.067-4.933,8.262
			c-0.988,0.82-1.974,1.638-2.962,2.457c-2.98,0.915-6.567,1.757-10.444,2.844c-9.562,2.677-12.24,7.649-12.24,7.649
			c4.208-2.295,11.475-1.147,16.447,0.383s23.333,2.295,30.217,0.765c6.885-1.53,13.77-4.207,20.655-1.53
			c6.885,2.678,30.983-2.295,45.135-2.677c14.152-0.383,24.11,2.656,24.11,2.656c-0.766-2.678-1.53-4.591-8.033-6.886
			c-6.502-2.295-1.912-3.825-6.885-8.415c-1.459-1.346-2.919-2.631-4.277-3.794c-0.01-0.03,0-0.056-0.013-0.089
			c-2.684-7.867-6.028-15.367-9.954-22.527c-1.199-6.791-1.912-13.412-1.912-19.407c-1.236,0-4.238-23.715-3.015-28.137
			c2.644,0-4.712-31.622-5.019-36.478c-1.205-18.719-5.406-79.294-6.459-112.465c-0.588-18.146-1.142-36.288-1.727-54.422
			c3.158-9.483,6.307-18.966,9.471-28.431c6.711-20.08,21.031-40.049,35.315-55.392c-1.159,1.245,1.454,4.44,2.316,5.021
			c3.565-13.461,14.597-4.223,22.011,2.329c7.249,6.405,12.718,14.538,18.106,22.577c6.153,9.18,12.965,19.247,14.694,30.41
			c1.475,9.529-3.406,18.586-3.406,28.501c-2.417,0-1.178,26.142-4.03,26.142c0.774,2.741,0.232,2.273,3.015,3.017
			c0-3.094,3.504-25.135,4.018-25.135c0-8.063,1.753-15.239,4.697-24.119c4.409-13.268,12.096,5.386,15.41,7.041
			c2.215,10.018,5.413,17.063,8.045,28.136c-3.231,0,0.195,5.028-3.012,5.028c0.334,1.132,0.992,1.934,0.992,3.029
			c2.747,0,3.014-2.919,3.014-5.04c2.562,2.644,0.554,7.035,5.034,7.035c-1.246-10.872-6.004-20.915-8.042-31.154
			c-1.387-6.943-3.941-9.006-6.031-15.064c1.01,0.324,1.34,0,1.01-1.01c6.943,0.435,8.791,6.903,14.073,10.043
			c1.187,6.013,5.015,24.149,5.015,8.047C436.364,277.062,435.516,280.26,438.396,281.067z M482.619,85.081
			c-2.157,3.635-12.056,9.418-12.056,2.013C474.321,86.46,480.051,85.081,482.619,85.081z M399.898,137.21l-2.732-2.983
			c0.707-0.257,1.411-0.517,2.114-0.783l0.988,3.562C400.302,137.314,400.14,137.406,399.898,137.21z M465.535,92.122h-2.007
			c-0.691,3.556-7.087,17.09-11.059,17.09c0-5.367-4.03-7.237-4.03-12.062c-0.41,0-7.029-8.433-7.029-10.055
			C447.677,86.968,463.286,83.471,465.535,92.122z M424.13,73.994c0.082-0.367,0.312-0.404,0.505-0.083l2.628,6.353
			c-1.229,0.174-2.454,0.373-3.678,0.593L424.13,73.994z M423.31,96.146c5.126,1.016,7.322,2.754,9.204,7.735
			c1.219,3.262,2.553,11.353,5.882,11.353c-0.221-5.725-1.753-11.444-5.062-16.184c-1.569-2.255-9.021-6.989-9.021-8.941
			c4.847,0,9.397-3.543,13.066,2.014c3.647,1.206,5.027,4.051,6.049,8.039c2.118,1.426,6.689,12.068,7.014,12.068
			c-2.359,9.392-27.466,9.033-35.162,9.033c0.774-4.657,3.008-10.578,3.008-14.061C420.229,103.446,422.924,100.549,423.31,96.146z
			 M419.304,93.128c-0.254,2.412-0.924,11.059-4.023,11.059c0,1.72-2.371,1.812-3.018,4.005h2.008
			c-0.324,4.364-0.67,8.728-1.016,13.072c-4.41,0.08-8.785,0.606-13.104,1.472c-7.775,1.548-15.278,4.162-23.075,5.569
			C380.327,112.213,400.373,93.312,419.304,93.128z M192.087,185.653c-0.795-0.569-1.591-1.135-2.387-1.704l4-3.415
			c0.3-0.19,0.474-0.062,0.392,0.281L192.087,185.653z M234.45,208.251l-3.571,5.074c-0.331-0.233-0.67-0.459-0.995-0.692
			c-0.679-0.486-1.358-0.97-2.041-1.457l6.279-3.277C234.458,207.783,234.603,207.939,234.45,208.251z M299.742,196.302
			l-7.571-6.016c-0.343-0.364-0.214-0.643,0.285-0.618l9.682,1.968C301.348,193.193,300.549,194.751,299.742,196.302z
			 M324.809,172.529c0.651-1.444,1.236-2.788,1.796-4.088c0.899-0.107,1.778-0.214,2.626-0.324
			C327.563,170.274,325.987,172.529,324.809,172.529z M326.81,141.837l0.68-8.617c0.113-0.49,0.413-0.536,0.67-0.107l2.757,6.655
			C328.964,139.221,327.682,140.265,326.81,141.837z M350.957,175.531c0.704-2.754,1.928-3.647,3.014-6.013
			c5.01,3.987,8.391,10.67,11.06,17.078C360.687,183.003,354.925,175.531,350.957,175.531z"/>
		<path d="M197.828,223.196c0.245,0.123,0.486,0.218,0.743,0.285c0.3,0.08,0.499-0.146,0.419-0.447
			c-1.114-4.162-6.022-6.129-11.609-9.03c-0.275-0.144-0.526-0.003-0.56,0.306l0.373,8.442c-0.034,0.309-0.214,0.361-0.404,0.116
			l-4.101-7.24c-0.189-0.245-0.48-0.233-0.643,0.034c-3.204,5.272-6.404,9.357-5.263,13.445c0.083,0.3,0.371,0.392,0.588,0.171
			c0.184-0.184,0.339-0.385,0.493-0.624c0.168-0.26,0.333-0.242,0.395,0.064c0.336,1.625,1.132,5.321,2.656,7.271
			c0.189,0.245,0.462,0.187,0.581-0.101c0.074-0.184,0.156-0.395,0.245-0.67c0.095-0.293,0.254-0.306,0.392-0.027
			c0.894,1.854,2.625,4.208,3.834,5.174c0.242,0.193,0.587,0.095,0.698-0.196c0.04-0.101,0.077-0.211,0.11-0.328
			c0.088-0.297,0.278-0.336,0.477-0.098c1.096,1.3,3.813,3.788,5.15,4.532c0.272,0.15,0.698,0.034,0.854-0.235
			c0.771-1.322,1.848-4.844,2.13-6.521c0.052-0.306,0.232-0.367,0.462-0.156c0.089,0.083,0.174,0.156,0.26,0.224
			c0.242,0.192,0.59,0.104,0.701-0.187c0.551-1.447,0.841-4.354,0.67-6.404c-0.027-0.309,0.116-0.379,0.349-0.174
			c0.217,0.192,0.397,0.333,0.554,0.453c0.248,0.187,0.511,0.098,0.551-0.211c0.321-2.454-0.872-6.041-1.408-7.61
			C197.417,223.157,197.549,223.056,197.828,223.196z"/>
		<path d="M180.306,244.405c0.245,0.123,0.487,0.217,0.744,0.285c0.3,0.08,0.499-0.147,0.419-0.447
			c-1.114-4.162-6.022-6.129-11.61-9.03c-0.275-0.144-0.526-0.003-0.56,0.306l0.373,8.443c-0.034,0.309-0.214,0.361-0.404,0.116
			l-4.101-7.24c-0.189-0.245-0.48-0.232-0.643,0.034c-3.204,5.272-6.404,9.357-5.263,13.446c0.083,0.3,0.37,0.392,0.587,0.171
			c0.184-0.184,0.34-0.386,0.493-0.625c0.168-0.26,0.333-0.242,0.395,0.064c0.336,1.625,1.132,5.321,2.656,7.271
			c0.19,0.245,0.462,0.187,0.582-0.101c0.074-0.184,0.156-0.395,0.245-0.67c0.095-0.294,0.254-0.306,0.392-0.028
			c0.894,1.854,2.625,4.208,3.834,5.175c0.242,0.193,0.587,0.095,0.698-0.196c0.04-0.101,0.077-0.211,0.11-0.328
			c0.088-0.297,0.278-0.336,0.477-0.098c1.096,1.3,3.813,3.788,5.15,4.532c0.272,0.15,0.701,0.034,0.857-0.236
			c0.771-1.322,1.848-4.844,2.13-6.521c0.052-0.306,0.232-0.367,0.462-0.156c0.089,0.083,0.174,0.156,0.26,0.223
			c0.242,0.193,0.59,0.104,0.701-0.187c0.551-1.447,0.841-4.354,0.67-6.404c-0.027-0.309,0.116-0.379,0.349-0.175
			c0.217,0.193,0.397,0.333,0.554,0.453c0.248,0.187,0.511,0.098,0.551-0.211c0.321-2.454-0.872-6.04-1.408-7.61
			C179.899,244.369,180.027,244.268,180.306,244.405z"/>
		<path d="M107.459,156.146c-0.037,0.309,0.196,0.459,0.48,0.339c0.181-0.076,0.389-0.168,0.649-0.3
			c0.275-0.141,0.397-0.037,0.293,0.257c-0.679,1.943-1.12,4.832-0.948,6.371c0.034,0.309,0.349,0.483,0.63,0.355
			c0.101-0.046,0.205-0.095,0.309-0.153c0.272-0.147,0.435-0.04,0.407,0.266c-0.144,1.695,0.019,5.376,0.435,6.845
			c0.085,0.3,0.471,0.517,0.771,0.438c1.481-0.389,4.731-2.121,6.117-3.106c0.254-0.18,0.425-0.095,0.438,0.217
			c0.006,0.12,0.015,0.236,0.027,0.343c0.034,0.309,0.343,0.49,0.627,0.364c1.411-0.637,3.675-2.485,5.003-4.055
			c0.199-0.235,0.352-0.187,0.371,0.123c0.018,0.291,0.046,0.517,0.07,0.713c0.042,0.306,0.291,0.429,0.539,0.239
			c1.961-1.505,3.657-4.887,4.388-6.377c0.135-0.278,0.3-0.257,0.398,0.037c0.085,0.26,0.193,0.499,0.324,0.725
			c0.156,0.267,0.456,0.248,0.612-0.021c2.154-3.73,0.076-8.592-1.824-14.596c-0.095-0.296-0.371-0.373-0.612-0.18l-5.707,6.23
			c-0.242,0.196-0.407,0.104-0.367-0.205l2.222-8.02c0.04-0.309-0.177-0.505-0.477-0.432c-5.995,1.463-11.145,2.087-13.229,5.783
			c-0.153,0.27-0.015,0.539,0.294,0.539c0.26,0,0.514-0.03,0.789-0.092c0.303-0.067,0.407,0.064,0.236,0.325
			C109.81,150.512,107.759,153.688,107.459,156.146z"/>
		<path d="M112.178,238.778l-5.707,6.23c-0.242,0.196-0.407,0.104-0.367-0.205l2.222-8.02c0.04-0.309-0.178-0.505-0.478-0.432
			c-5.995,1.462-11.145,2.087-13.229,5.783c-0.153,0.27-0.015,0.539,0.294,0.539c0.26,0,0.511-0.03,0.79-0.092
			c0.303-0.067,0.407,0.064,0.235,0.325c-0.912,1.386-2.962,4.565-3.262,7.02c-0.037,0.309,0.196,0.459,0.48,0.339
			c0.184-0.076,0.389-0.168,0.648-0.3c0.275-0.141,0.398-0.037,0.294,0.257c-0.679,1.943-1.12,4.832-0.949,6.371
			c0.034,0.309,0.349,0.483,0.63,0.355c0.101-0.046,0.205-0.095,0.312-0.153c0.272-0.147,0.435-0.04,0.407,0.269
			c-0.144,1.695,0.019,5.376,0.435,6.845c0.085,0.3,0.471,0.517,0.771,0.438c1.481-0.389,4.731-2.121,6.117-3.106
			c0.254-0.181,0.425-0.095,0.438,0.217c0.006,0.119,0.015,0.235,0.024,0.343c0.034,0.309,0.343,0.489,0.627,0.364
			c1.414-0.636,3.675-2.484,5.003-4.054c0.199-0.236,0.352-0.187,0.37,0.122c0.019,0.291,0.046,0.517,0.07,0.713
			c0.043,0.306,0.291,0.429,0.539,0.239c1.961-1.505,3.657-4.887,4.385-6.377c0.138-0.278,0.3-0.257,0.397,0.037
			c0.086,0.26,0.193,0.499,0.325,0.726c0.156,0.266,0.456,0.248,0.612-0.021c2.154-3.73,0.077-8.593-1.824-14.596
			C112.695,238.662,112.42,238.585,112.178,238.778z"/>
		<path d="M71.85,173.046c-0.134,0.257-0.229,0.465-0.309,0.646c-0.122,0.285,0.028,0.517,0.337,0.483
			c2.457-0.275,5.658-2.292,7.053-3.191c0.26-0.168,0.389-0.064,0.321,0.235c-0.061,0.266-0.095,0.526-0.098,0.79
			c-0.003,0.309,0.263,0.45,0.533,0.3c3.773-2.078,4.51-7.316,5.988-13.433c0.074-0.303-0.125-0.514-0.431-0.471l-8.106,2.384
			c-0.306,0.042-0.401-0.123-0.208-0.364l6.05-5.716c0.193-0.245,0.11-0.523-0.187-0.615c-5.888-1.849-10.618-3.978-14.315-1.891
			c-0.269,0.153-0.293,0.453-0.027,0.612c0.223,0.135,0.456,0.239,0.722,0.331c0.294,0.101,0.312,0.266,0.034,0.401
			c-1.5,0.716-4.896,2.375-6.423,4.321c-0.19,0.245-0.07,0.496,0.235,0.542c0.196,0.027,0.419,0.058,0.71,0.08
			c0.309,0.021,0.358,0.174,0.12,0.373c-1.585,1.313-3.458,3.556-4.107,4.96c-0.131,0.282,0.049,0.594,0.355,0.63
			c0.11,0.012,0.224,0.024,0.346,0.031c0.309,0.015,0.392,0.189,0.211,0.44c-1,1.377-2.763,4.611-3.167,6.086
			c-0.083,0.3,0.134,0.686,0.431,0.774c1.469,0.432,5.147,0.634,6.842,0.505c0.309-0.024,0.413,0.138,0.263,0.41
			c-0.058,0.107-0.11,0.208-0.156,0.306c-0.131,0.282,0.04,0.597,0.349,0.636c1.536,0.187,4.431-0.223,6.38-0.884
			C71.89,172.651,71.994,172.774,71.85,173.046z"/>
		<path d="M387.487,312.962l-5.707,6.229c-0.241,0.196-0.407,0.104-0.367-0.205l2.222-8.02c0.04-0.31-0.178-0.505-0.478-0.432
			c-5.994,1.463-11.145,2.087-13.229,5.783c-0.152,0.27-0.015,0.539,0.294,0.539c0.26,0,0.514-0.031,0.789-0.092
			c0.304-0.067,0.407,0.063,0.236,0.324c-0.912,1.386-2.962,4.565-3.263,7.02c-0.036,0.309,0.196,0.459,0.48,0.34
			c0.181-0.077,0.389-0.169,0.649-0.3c0.275-0.142,0.397-0.037,0.294,0.257c-0.677,1.943-1.117,4.832-0.949,6.371
			c0.034,0.309,0.349,0.483,0.631,0.354c0.098-0.046,0.201-0.095,0.309-0.153c0.272-0.146,0.435-0.039,0.407,0.27
			c-0.144,1.695,0.019,5.377,0.435,6.846c0.086,0.3,0.471,0.517,0.771,0.438c1.481-0.389,4.731-2.121,6.117-3.106
			c0.254-0.181,0.426-0.095,0.438,0.218c0.006,0.119,0.016,0.235,0.024,0.343c0.034,0.309,0.343,0.489,0.628,0.364
			c1.41-0.637,3.675-2.485,5.003-4.055c0.198-0.236,0.352-0.187,0.37,0.122c0.019,0.291,0.046,0.518,0.07,0.713
			c0.043,0.307,0.291,0.429,0.538,0.239c1.962-1.506,3.657-4.887,4.386-6.377c0.138-0.279,0.3-0.258,0.397,0.036
			c0.086,0.261,0.192,0.499,0.324,0.726c0.156,0.266,0.456,0.248,0.612-0.021c2.157-3.73,0.076-8.593-1.824-14.597
			C388.003,312.846,387.725,312.769,387.487,312.962z"/>
		<path d="M354.705,228.123c0.007,0.12,0.016,0.236,0.024,0.343c0.034,0.309,0.343,0.49,0.628,0.364
			c1.413-0.637,3.675-2.485,5.003-4.055c0.199-0.235,0.352-0.187,0.37,0.123c0.019,0.291,0.046,0.517,0.07,0.713
			c0.043,0.306,0.291,0.428,0.539,0.239c1.961-1.505,3.656-4.887,4.385-6.377c0.138-0.278,0.3-0.257,0.397,0.037
			c0.086,0.26,0.189,0.499,0.324,0.725c0.156,0.267,0.456,0.248,0.612-0.021c2.157-3.73,0.076-8.592-1.823-14.596
			c-0.096-0.296-0.371-0.373-0.612-0.18l-5.707,6.23c-0.242,0.196-0.407,0.104-0.367-0.205l2.222-8.02
			c0.036-0.309-0.178-0.505-0.478-0.432c-5.994,1.463-11.145,2.087-13.229,5.783c-0.153,0.27-0.015,0.539,0.294,0.539
			c0.26,0,0.514-0.03,0.789-0.092c0.304-0.067,0.407,0.064,0.236,0.325c-0.912,1.386-2.962,4.565-3.263,7.02
			c-0.036,0.309,0.196,0.459,0.48,0.34c0.184-0.077,0.389-0.168,0.649-0.3c0.275-0.141,0.397-0.037,0.293,0.257
			c-0.679,1.943-1.119,4.832-0.948,6.371c0.034,0.309,0.349,0.483,0.631,0.354c0.101-0.046,0.201-0.095,0.312-0.153
			c0.272-0.147,0.435-0.043,0.407,0.266c-0.144,1.695,0.019,5.376,0.435,6.845c0.086,0.3,0.471,0.517,0.771,0.438
			c1.48-0.388,4.73-2.121,6.116-3.106C354.521,227.729,354.693,227.814,354.705,228.123z"/>
		<path d="M426.844,310.498l-5.707,6.23c-0.241,0.196-0.406,0.104-0.367-0.205l2.222-8.021c0.04-0.309-0.177-0.505-0.478-0.431
			c-5.994,1.462-11.145,2.086-13.228,5.783c-0.153,0.269-0.016,0.538,0.293,0.538c0.261,0,0.515-0.03,0.79-0.092
			c0.303-0.067,0.406,0.064,0.235,0.324c-0.912,1.387-2.962,4.565-3.262,7.02c-0.037,0.31,0.195,0.459,0.48,0.34
			c0.181-0.076,0.389-0.168,0.648-0.3c0.275-0.141,0.397-0.036,0.294,0.257c-0.68,1.943-1.12,4.832-0.949,6.371
			c0.034,0.31,0.35,0.483,0.631,0.355c0.101-0.046,0.205-0.095,0.309-0.153c0.272-0.146,0.435-0.04,0.407,0.27
			c-0.144,1.695,0.019,5.376,0.435,6.845c0.086,0.3,0.472,0.518,0.771,0.438c1.48-0.389,4.73-2.12,6.116-3.105
			c0.254-0.181,0.426-0.095,0.438,0.217c0.006,0.12,0.015,0.236,0.027,0.343c0.033,0.31,0.343,0.49,0.627,0.364
			c1.411-0.637,3.675-2.484,5.003-4.055c0.199-0.235,0.353-0.187,0.37,0.123c0.019,0.29,0.046,0.517,0.07,0.713
			c0.043,0.306,0.291,0.429,0.539,0.238c1.961-1.505,3.656-4.887,4.388-6.377c0.135-0.278,0.3-0.257,0.398,0.037
			c0.085,0.26,0.192,0.499,0.324,0.725c0.156,0.267,0.456,0.248,0.612-0.021c2.153-3.729,0.076-8.592-1.824-14.596
			C427.365,310.382,427.086,310.306,426.844,310.498z"/>
		<path d="M429.008,192.11c1.413-0.636,3.675-2.484,5.003-4.054c0.198-0.236,0.352-0.187,0.37,0.122
			c0.019,0.291,0.046,0.518,0.07,0.713c0.043,0.306,0.291,0.428,0.538,0.238c1.962-1.505,3.657-4.887,4.386-6.377
			c0.138-0.278,0.3-0.257,0.397,0.037c0.086,0.26,0.192,0.499,0.324,0.726c0.156,0.266,0.456,0.248,0.612-0.021
			c2.157-3.73,0.076-8.593-1.824-14.596c-0.095-0.297-0.373-0.374-0.611-0.181l-5.707,6.23c-0.242,0.196-0.407,0.104-0.367-0.205
			l2.222-8.021c0.039-0.309-0.178-0.505-0.478-0.431c-5.995,1.462-11.145,2.087-13.229,5.783c-0.153,0.269-0.016,0.539,0.294,0.539
			c0.26,0,0.514-0.031,0.789-0.092c0.303-0.067,0.407,0.064,0.235,0.324c-0.911,1.386-2.962,4.565-3.262,7.02
			c-0.036,0.309,0.196,0.459,0.48,0.34c0.181-0.077,0.389-0.168,0.648-0.3c0.275-0.141,0.398-0.037,0.294,0.257
			c-0.679,1.943-1.12,4.832-0.948,6.371c0.033,0.309,0.349,0.483,0.63,0.355c0.099-0.046,0.202-0.095,0.31-0.153
			c0.272-0.146,0.435-0.042,0.407,0.267c-0.145,1.695,0.018,5.376,0.434,6.845c0.086,0.3,0.472,0.517,0.771,0.438
			c1.481-0.389,4.73-2.121,6.117-3.106c0.254-0.181,0.425-0.095,0.438,0.217c0.006,0.119,0.016,0.236,0.024,0.343
			C428.417,192.055,428.726,192.238,429.008,192.11z"/>
		<path d="M428.377,218.701c0.116-0.288-0.058-0.697-0.343-0.817c-1.41-0.593-5.043-1.203-6.744-1.264
			c-0.309-0.012-0.395-0.184-0.214-0.438c0.07-0.098,0.131-0.196,0.189-0.288c0.159-0.266,0.027-0.6-0.275-0.67
			c-1.506-0.355-4.428-0.269-6.438,0.168c-0.303,0.067-0.392-0.067-0.22-0.324c0.162-0.242,0.278-0.438,0.376-0.609
			c0.153-0.27,0.03-0.517-0.281-0.517c-2.473,0-5.876,1.649-7.362,2.387c-0.279,0.138-0.396,0.021-0.294-0.272
			c0.089-0.26,0.149-0.511,0.184-0.774c0.04-0.309-0.211-0.474-0.496-0.358c-3.98,1.644-5.294,6.769-7.441,12.687
			c-0.107,0.291,0.067,0.523,0.376,0.517l8.32-1.466c0.309-0.006,0.386,0.165,0.168,0.386l-6.646,5.006
			c-0.217,0.22-0.168,0.508,0.116,0.633c5.646,2.491,10.11,5.132,14.016,3.47c0.284-0.123,0.339-0.416,0.095-0.606
			c-0.208-0.159-0.426-0.288-0.683-0.407c-0.281-0.132-0.281-0.3,0.013-0.401c1.569-0.545,5.128-1.814,6.863-3.58
			c0.217-0.221,0.125-0.484-0.175-0.563c-0.189-0.049-0.41-0.104-0.694-0.156c-0.307-0.055-0.337-0.214-0.076-0.382
			c1.72-1.129,3.828-3.149,4.629-4.474c0.159-0.266,0.019-0.593-0.284-0.667c-0.107-0.024-0.221-0.049-0.34-0.067
			c-0.306-0.052-0.37-0.232-0.159-0.462C425.7,223.142,427.811,220.125,428.377,218.701z"/>
		<path d="M467.904,190.834c0.251,0.147,0.456,0.248,0.633,0.333c0.278,0.135,0.518-0.006,0.496-0.315
			c-0.175-2.47-2.06-5.747-2.897-7.179c-0.156-0.267-0.05-0.392,0.251-0.312c0.263,0.07,0.52,0.116,0.783,0.129
			c0.309,0.018,0.459-0.242,0.321-0.521c-1.919-3.855-7.124-4.807-13.177-6.536c-0.297-0.085-0.517,0.104-0.489,0.413l2.047,8.198
			c0.03,0.309-0.138,0.395-0.373,0.193l-5.462-6.279c-0.236-0.202-0.518-0.131-0.625,0.159c-2.09,5.805-4.412,10.444-2.479,14.223
			c0.141,0.275,0.44,0.312,0.609,0.052c0.144-0.217,0.257-0.443,0.357-0.71c0.113-0.288,0.279-0.303,0.401-0.015
			c0.651,1.527,2.17,4.991,4.052,6.594c0.235,0.202,0.492,0.092,0.551-0.214c0.036-0.192,0.073-0.416,0.106-0.704
			c0.034-0.309,0.19-0.352,0.377-0.104c1.245,1.637,3.412,3.599,4.789,4.305c0.275,0.141,0.593-0.024,0.643-0.33
			c0.018-0.107,0.033-0.224,0.043-0.343c0.03-0.309,0.204-0.386,0.446-0.193c1.334,1.056,4.492,2.95,5.948,3.415
			c0.297,0.095,0.692-0.107,0.793-0.401c0.492-1.451,0.845-5.116,0.786-6.815c-0.009-0.309,0.156-0.407,0.423-0.245
			c0.104,0.061,0.205,0.12,0.3,0.168c0.275,0.141,0.6-0.016,0.648-0.321c0.251-1.527-0.043-4.434-0.621-6.411
			C467.509,190.776,467.634,190.678,467.904,190.834z"/>
		<path d="M456.49,214.01c0.251,0.147,0.456,0.248,0.634,0.333c0.278,0.135,0.517-0.006,0.495-0.315
			c-0.174-2.469-2.056-5.747-2.897-7.179c-0.156-0.266-0.049-0.392,0.251-0.312c0.263,0.07,0.521,0.116,0.783,0.128
			c0.309,0.018,0.459-0.245,0.321-0.52c-1.919-3.856-7.124-4.808-13.177-6.536c-0.3-0.086-0.517,0.104-0.489,0.413l2.047,8.197
			c0.028,0.309-0.138,0.395-0.373,0.193l-5.462-6.279c-0.235-0.202-0.518-0.132-0.624,0.159c-2.09,5.805-4.413,10.443-2.479,14.223
			c0.141,0.275,0.44,0.312,0.608,0.052c0.144-0.217,0.257-0.444,0.358-0.71c0.113-0.291,0.278-0.303,0.4-0.016
			c0.652,1.527,2.17,4.991,4.052,6.594c0.235,0.202,0.492,0.092,0.551-0.214c0.036-0.193,0.073-0.417,0.107-0.707
			c0.033-0.309,0.189-0.352,0.376-0.104c1.245,1.637,3.412,3.599,4.789,4.305c0.275,0.141,0.594-0.024,0.643-0.33
			c0.019-0.107,0.033-0.224,0.043-0.343c0.03-0.309,0.205-0.386,0.446-0.193c1.334,1.056,4.492,2.95,5.949,3.415
			c0.293,0.095,0.691-0.107,0.792-0.401c0.493-1.451,0.845-5.116,0.787-6.814c-0.013-0.309,0.155-0.407,0.422-0.245
			c0.104,0.062,0.205,0.12,0.3,0.168c0.275,0.141,0.6-0.015,0.648-0.321c0.251-1.527-0.043-4.434-0.621-6.411
			C456.098,213.952,456.223,213.854,456.49,214.01z"/>
		<path d="M454.602,289.764c0.263,0.07,0.52,0.116,0.783,0.129c0.309,0.019,0.459-0.245,0.321-0.521
			c-1.919-3.855-7.124-4.808-13.177-6.536c-0.3-0.086-0.517,0.104-0.489,0.413l2.047,8.198c0.027,0.309-0.138,0.395-0.373,0.192
			l-5.462-6.279c-0.236-0.202-0.518-0.132-0.625,0.159c-2.09,5.805-4.412,10.443-2.479,14.223c0.142,0.275,0.441,0.312,0.609,0.053
			c0.144-0.218,0.257-0.444,0.358-0.71c0.113-0.291,0.278-0.304,0.4-0.016c0.651,1.527,2.17,4.991,4.052,6.595
			c0.235,0.201,0.492,0.092,0.551-0.215c0.036-0.192,0.073-0.416,0.106-0.707c0.034-0.309,0.19-0.352,0.377-0.104
			c1.245,1.637,3.412,3.599,4.789,4.306c0.275,0.141,0.594-0.025,0.643-0.331c0.019-0.107,0.033-0.224,0.043-0.343
			c0.03-0.309,0.205-0.386,0.446-0.192c1.334,1.056,4.492,2.949,5.949,3.415c0.293,0.095,0.691-0.107,0.792-0.401
			c0.493-1.45,0.845-5.116,0.786-6.814c-0.012-0.309,0.156-0.407,0.423-0.245c0.104,0.062,0.205,0.12,0.3,0.169
			c0.275,0.141,0.6-0.016,0.648-0.321c0.251-1.527-0.043-4.435-0.621-6.411c-0.086-0.297,0.04-0.397,0.306-0.241
			c0.251,0.144,0.456,0.247,0.634,0.333c0.278,0.135,0.518-0.006,0.496-0.315c-0.175-2.469-2.057-5.746-2.898-7.179
			C454.195,289.807,454.302,289.685,454.602,289.764z"/>
		<path d="M503.069,130.641c0.275,0.062,0.529,0.092,0.79,0.092c0.309,0,0.446-0.266,0.293-0.539
			c-2.083-3.696-7.233-4.321-13.228-5.783c-0.304-0.074-0.518,0.123-0.478,0.431l2.222,8.021c0.039,0.309-0.126,0.401-0.367,0.205
			l-5.707-6.23c-0.242-0.195-0.521-0.116-0.612,0.181c-1.9,6.001-3.981,10.866-1.823,14.596c0.155,0.27,0.455,0.288,0.611,0.021
			c0.135-0.227,0.239-0.465,0.324-0.725c0.099-0.294,0.261-0.315,0.398-0.037c0.731,1.49,2.423,4.872,4.385,6.377
			c0.245,0.189,0.496,0.067,0.538-0.239c0.028-0.196,0.053-0.422,0.071-0.713c0.018-0.309,0.171-0.361,0.37-0.123
			c1.328,1.573,3.592,3.421,5.003,4.055c0.284,0.128,0.594-0.055,0.627-0.364c0.013-0.107,0.021-0.223,0.027-0.343
			c0.013-0.309,0.184-0.395,0.438-0.217c1.387,0.985,4.637,2.717,6.117,3.106c0.3,0.08,0.686-0.141,0.771-0.438
			c0.416-1.472,0.581-5.153,0.435-6.845c-0.027-0.309,0.135-0.413,0.407-0.266c0.106,0.058,0.211,0.107,0.309,0.153
			c0.284,0.128,0.597-0.046,0.63-0.355c0.172-1.539-0.269-4.428-0.948-6.371c-0.101-0.293,0.019-0.397,0.294-0.257
			c0.257,0.131,0.465,0.223,0.648,0.3c0.288,0.12,0.521-0.034,0.48-0.339c-0.3-2.454-2.35-5.634-3.262-7.02
			C502.666,130.705,502.766,130.573,503.069,130.641z"/>
		<path d="M475.177,121.277c0.153,0.076,0.275,0.131,0.383,0.177c0.168,0.07,0.306-0.018,0.284-0.202
			c-0.178-1.45-1.39-3.329-1.928-4.149c-0.102-0.153-0.04-0.233,0.138-0.193c0.162,0.037,0.312,0.055,0.468,0.055
			c0.184,0,0.264-0.159,0.175-0.318c-1.233-2.185-4.278-2.555-7.821-3.421c-0.178-0.042-0.306,0.074-0.281,0.254l1.312,4.74
			c0.024,0.181-0.073,0.236-0.218,0.123l-3.372-3.685c-0.144-0.116-0.306-0.067-0.364,0.107c-1.123,3.549-2.353,6.423-1.077,8.629
			c0.092,0.159,0.27,0.171,0.361,0.012c0.08-0.134,0.141-0.275,0.193-0.428c0.058-0.174,0.155-0.187,0.235-0.021
			c0.432,0.881,1.432,2.879,2.592,3.77c0.146,0.11,0.294,0.04,0.318-0.141c0.015-0.117,0.03-0.251,0.043-0.422
			c0.012-0.184,0.101-0.214,0.22-0.074c0.787,0.93,2.124,2.023,2.959,2.399c0.169,0.076,0.353-0.034,0.371-0.214
			c0.006-0.064,0.012-0.132,0.015-0.202c0.006-0.184,0.11-0.232,0.257-0.128c0.82,0.582,2.742,1.606,3.617,1.836
			c0.178,0.046,0.407-0.083,0.456-0.26c0.248-0.869,0.343-3.044,0.257-4.048c-0.015-0.184,0.08-0.245,0.242-0.159
			c0.064,0.033,0.125,0.064,0.184,0.092c0.168,0.076,0.352-0.028,0.373-0.211c0.101-0.909-0.159-2.616-0.56-3.767
			C474.942,121.256,475.012,121.194,475.177,121.277z"/>
		<path d="M205.444,95.371c-0.386-0.245-0.753-0.432-1.147-0.575c-0.471-0.171-0.823,0.159-0.741,0.655
			c1.123,6.76,8.593,10.551,16.882,16.077c0.416,0.279,0.851,0.098,0.96-0.392l1.056-13.394c0.11-0.49,0.414-0.536,0.67-0.107
			l5.22,12.604c0.26,0.428,0.726,0.462,1.028,0.064c6.193-8.06,12.035-14.29,10.823-21.141c-0.089-0.493-0.533-0.688-0.918-0.367
			c-0.328,0.272-0.618,0.575-0.894,0.921c-0.312,0.392-0.572,0.333-0.625-0.165c-0.284-2.666-0.988-8.73-3.136-12.1
			c-0.27-0.422-0.713-0.376-0.949,0.067c-0.15,0.285-0.315,0.612-0.502,1.043c-0.199,0.459-0.459,0.453-0.63-0.018
			c-1.147-3.118-3.562-7.173-5.355-8.914c-0.358-0.349-0.93-0.242-1.15,0.205c-0.077,0.156-0.156,0.328-0.229,0.505
			c-0.19,0.462-0.499,0.499-0.783,0.086c-1.558-2.262-5.536-6.68-7.567-8.088c-0.413-0.285-1.117-0.165-1.411,0.242
			c-1.444,2.001-3.724,7.497-4.44,10.147c-0.131,0.484-0.431,0.554-0.765,0.181c-0.132-0.147-0.26-0.282-0.386-0.404
			c-0.358-0.349-0.93-0.257-1.153,0.189c-1.108,2.24-2.032,6.867-2.078,10.187c-0.006,0.501-0.248,0.593-0.59,0.226
			c-0.318-0.342-0.582-0.597-0.817-0.811c-0.367-0.34-0.805-0.239-0.918,0.251c-0.899,3.892,0.456,9.844,1.077,12.451
			C206.096,95.494,205.869,95.637,205.444,95.371z"/>
		<path d="M202.145,43.722c-0.088-0.493-0.532-0.688-0.918-0.367c-0.327,0.272-0.618,0.575-0.894,0.921
			c-0.312,0.392-0.572,0.333-0.624-0.166c-0.285-2.665-0.988-8.73-3.137-12.099c-0.269-0.422-0.716-0.376-0.949,0.067
			c-0.15,0.285-0.315,0.612-0.501,1.043c-0.199,0.459-0.459,0.453-0.63-0.019c-1.147-3.118-3.562-7.172-5.355-8.914
			c-0.358-0.349-0.93-0.242-1.151,0.205c-0.076,0.156-0.153,0.327-0.229,0.505c-0.189,0.462-0.499,0.499-0.783,0.085
			c-1.558-2.261-5.536-6.68-7.567-8.087c-0.413-0.285-1.12-0.165-1.411,0.242c-1.444,2.001-3.724,7.497-4.44,10.147
			c-0.132,0.483-0.432,0.554-0.765,0.181c-0.131-0.147-0.26-0.282-0.386-0.404c-0.358-0.349-0.93-0.257-1.153,0.189
			c-1.108,2.24-2.032,6.867-2.078,10.187c-0.006,0.501-0.248,0.593-0.591,0.226c-0.318-0.342-0.584-0.597-0.817-0.811
			c-0.367-0.34-0.805-0.239-0.918,0.25c-0.9,3.893,0.456,9.844,1.077,12.451c0.116,0.487-0.113,0.63-0.536,0.364
			c-0.386-0.245-0.753-0.432-1.147-0.575c-0.471-0.171-0.823,0.159-0.741,0.655c1.123,6.76,8.593,10.551,16.882,16.077
			c0.416,0.279,0.851,0.098,0.964-0.392l1.056-13.394c0.11-0.49,0.413-0.536,0.67-0.107l5.221,12.604
			c0.26,0.428,0.725,0.462,1.028,0.064C197.519,56.803,203.36,50.57,202.145,43.722z"/>
		<path d="M488.917,169.94c0.275,0.061,0.529,0.092,0.789,0.092c0.31,0,0.447-0.266,0.294-0.539
			c-2.084-3.697-7.233-4.321-13.229-5.784c-0.303-0.073-0.517,0.123-0.477,0.432l2.221,8.021c0.04,0.309-0.125,0.4-0.367,0.205
			l-5.706-6.23c-0.242-0.196-0.521-0.116-0.612,0.181c-1.9,6-3.981,10.866-1.824,14.596c0.156,0.269,0.456,0.288,0.612,0.021
			c0.135-0.227,0.238-0.465,0.324-0.726c0.098-0.293,0.261-0.315,0.398-0.037c0.73,1.49,2.423,4.872,4.385,6.377
			c0.244,0.19,0.495,0.067,0.538-0.238c0.028-0.196,0.053-0.422,0.07-0.713c0.019-0.309,0.172-0.361,0.37-0.122
			c1.328,1.573,3.593,3.421,5.004,4.054c0.284,0.129,0.594-0.055,0.627-0.364c0.012-0.107,0.021-0.223,0.027-0.342
			c0.013-0.309,0.184-0.395,0.438-0.217c1.387,0.985,4.636,2.717,6.117,3.106c0.3,0.08,0.686-0.141,0.771-0.438
			c0.416-1.472,0.581-5.15,0.435-6.845c-0.028-0.309,0.134-0.413,0.406-0.269c0.107,0.058,0.212,0.107,0.31,0.153
			c0.284,0.128,0.597-0.046,0.63-0.355c0.172-1.539-0.269-4.428-0.948-6.371c-0.102-0.294,0.019-0.398,0.294-0.257
			c0.257,0.132,0.465,0.224,0.648,0.3c0.288,0.12,0.521-0.033,0.48-0.339c-0.3-2.458-2.351-5.633-3.262-7.02
			C488.512,170.008,488.614,169.876,488.917,169.94z"/>
		<path d="M517.042,81.54c-0.279-0.138-0.285-0.331-0.016-0.486c0.104-0.062,0.202-0.126,0.291-0.187
			c0.257-0.174,0.269-0.532,0.024-0.722c-1.228-0.945-3.923-2.068-5.934-2.5c-0.303-0.064-0.331-0.223-0.067-0.386
			c0.248-0.153,0.432-0.281,0.594-0.397c0.251-0.181,0.241-0.459-0.04-0.588c-2.255-1.019-6.034-0.921-7.692-0.859
			c-0.31,0.012-0.371-0.144-0.156-0.371c0.195-0.205,0.352-0.404,0.489-0.627c0.162-0.266,0.003-0.52-0.306-0.529
			c-4.241-0.141-7.454,3.936-11.818,8.296c-0.22,0.22-0.162,0.505,0.12,0.633l8.005,2.271c0.284,0.128,0.275,0.315-0.016,0.419
			l-8.289,1.637c-0.291,0.104-0.371,0.383-0.166,0.618c4.141,4.743,7.216,9.049,11.521,9.144c0.309,0.006,0.48-0.239,0.333-0.511
			c-0.125-0.232-0.272-0.447-0.449-0.655c-0.199-0.235-0.135-0.386,0.174-0.358c1.652,0.15,5.423,0.462,7.729-0.432
			c0.288-0.113,0.315-0.389,0.074-0.584c-0.153-0.125-0.334-0.266-0.572-0.431c-0.254-0.178-0.221-0.333,0.088-0.379
			c2.035-0.318,4.789-1.292,6.065-2.167c0.257-0.174,0.26-0.536,0.016-0.726c-0.086-0.067-0.178-0.134-0.279-0.199
			c-0.257-0.171-0.241-0.364,0.043-0.486c1.564-0.67,4.731-2.549,5.833-3.611c0.223-0.214,0.235-0.658,0.024-0.888
			C521.625,84.349,518.565,82.299,517.042,81.54z"/>
		<path d="M388.466,186.382l-5.707-6.23c-0.242-0.196-0.521-0.116-0.612,0.181c-1.9,6-3.981,10.866-1.823,14.596
			c0.155,0.269,0.455,0.288,0.611,0.021c0.135-0.227,0.239-0.465,0.324-0.725c0.099-0.294,0.261-0.315,0.398-0.037
			c0.731,1.49,2.423,4.872,4.385,6.377c0.245,0.189,0.496,0.067,0.538-0.239c0.028-0.196,0.053-0.422,0.07-0.713
			c0.019-0.309,0.172-0.361,0.371-0.123c1.328,1.573,3.592,3.421,5.003,4.055c0.284,0.128,0.594-0.055,0.627-0.364
			c0.013-0.107,0.021-0.224,0.027-0.343c0.013-0.309,0.184-0.395,0.438-0.217c1.387,0.985,4.637,2.717,6.117,3.106
			c0.3,0.08,0.686-0.141,0.771-0.438c0.416-1.472,0.581-5.153,0.435-6.845c-0.027-0.309,0.135-0.413,0.406-0.27
			c0.107,0.058,0.212,0.107,0.31,0.153c0.281,0.128,0.597-0.046,0.63-0.355c0.172-1.54-0.269-4.428-0.948-6.371
			c-0.101-0.294,0.019-0.398,0.294-0.257c0.257,0.131,0.465,0.223,0.648,0.3c0.285,0.119,0.521-0.034,0.48-0.34
			c-0.3-2.454-2.35-5.633-3.262-7.02c-0.172-0.26-0.067-0.392,0.235-0.324c0.275,0.061,0.529,0.092,0.79,0.092
			c0.309,0,0.446-0.267,0.293-0.539c-2.084-3.697-7.233-4.321-13.229-5.784c-0.3-0.073-0.517,0.123-0.477,0.432l2.221,8.02
			C388.873,186.482,388.708,186.575,388.466,186.382z"/>
		<path d="M470.355,260.979c0.119-0.016,0.235-0.031,0.343-0.052c0.306-0.058,0.462-0.379,0.314-0.652
			c-0.737-1.361-2.748-3.482-4.412-4.691c-0.251-0.184-0.211-0.336,0.095-0.379c0.288-0.04,0.511-0.083,0.704-0.123
			c0.303-0.064,0.406-0.321,0.201-0.554c-1.646-1.845-5.144-3.283-6.686-3.901c-0.288-0.116-0.278-0.282,0.006-0.401
			c0.261-0.107,0.486-0.227,0.701-0.376c0.254-0.177,0.214-0.474-0.064-0.609c-3.822-1.848-8.409,0.578-14.165,2.8
			c-0.29,0.11-0.354,0.395-0.146,0.627l6.401,5.318c0.208,0.229,0.125,0.401-0.187,0.379l-8.241-1.86
			c-0.309-0.021-0.492,0.202-0.4,0.499c1.863,6.013,2.932,11.193,6.833,13.026c0.281,0.132,0.538-0.024,0.514-0.333
			c-0.021-0.263-0.07-0.517-0.146-0.78c-0.086-0.297,0.034-0.407,0.306-0.257c1.451,0.808,4.771,2.616,7.243,2.735
			c0.31,0.016,0.447-0.227,0.303-0.505c-0.088-0.177-0.195-0.376-0.349-0.627c-0.162-0.266-0.064-0.392,0.236-0.312
			c1.988,0.533,4.901,0.759,6.423,0.475c0.306-0.058,0.456-0.383,0.306-0.655c-0.052-0.095-0.11-0.196-0.175-0.296
			c-0.165-0.263-0.073-0.432,0.236-0.429c1.701,0.019,5.357-0.416,6.796-0.939c0.291-0.107,0.483-0.508,0.383-0.798
			c-0.499-1.448-2.464-4.562-3.55-5.872C469.975,261.192,470.045,261.015,470.355,260.979z"/>
		<path d="M309.656,158.263c0.309,0.04,0.505-0.177,0.432-0.477c-1.463-5.995-2.087-11.145-5.784-13.229
			c-0.269-0.153-0.538-0.015-0.538,0.294c0,0.26,0.03,0.514,0.092,0.789c0.067,0.303-0.064,0.407-0.324,0.236
			c-1.387-0.912-4.565-2.962-7.02-3.262c-0.31-0.037-0.459,0.196-0.34,0.48c0.076,0.184,0.168,0.389,0.3,0.649
			c0.141,0.275,0.037,0.398-0.257,0.294c-1.943-0.68-4.832-1.12-6.371-0.949c-0.31,0.034-0.483,0.349-0.354,0.63
			c0.045,0.101,0.095,0.202,0.152,0.309c0.147,0.272,0.04,0.435-0.27,0.407c-1.695-0.144-5.374,0.019-6.845,0.435
			c-0.297,0.086-0.518,0.471-0.438,0.771c0.389,1.481,2.12,4.731,3.105,6.117c0.181,0.254,0.095,0.425-0.217,0.438
			c-0.119,0.006-0.235,0.016-0.343,0.024c-0.31,0.034-0.493,0.343-0.364,0.627c0.637,1.411,2.485,3.675,4.055,5.003
			c0.235,0.199,0.187,0.352-0.123,0.371c-0.29,0.018-0.517,0.046-0.713,0.07c-0.306,0.043-0.428,0.291-0.238,0.539
			c1.506,1.961,4.887,3.657,6.377,4.385c0.278,0.138,0.257,0.3-0.037,0.398c-0.26,0.085-0.498,0.193-0.725,0.324
			c-0.27,0.156-0.248,0.456,0.019,0.612c3.729,2.157,8.592,0.076,14.596-1.824c0.297-0.095,0.377-0.37,0.181-0.612l-6.23-5.707
			c-0.195-0.242-0.104-0.407,0.205-0.367L309.656,158.263z"/>
		<path d="M373.637,96.289c0.294,0.095,0.529-0.076,0.514-0.385c-0.293-6.163,0.074-11.337-3.157-14.088
			c-0.236-0.202-0.526-0.119-0.585,0.187c-0.049,0.254-0.067,0.511-0.061,0.792c0.006,0.309-0.142,0.386-0.364,0.168
			c-1.188-1.16-3.917-3.779-6.271-4.541c-0.294-0.095-0.489,0.104-0.425,0.407c0.039,0.193,0.092,0.413,0.171,0.692
			c0.086,0.297-0.04,0.397-0.309,0.242c-1.778-1.034-4.529-2.02-6.071-2.145c-0.31-0.024-0.539,0.251-0.468,0.551
			c0.024,0.107,0.055,0.217,0.092,0.333c0.092,0.297-0.043,0.435-0.34,0.349c-1.638-0.465-5.282-1.006-6.806-0.878
			c-0.31,0.027-0.597,0.364-0.578,0.673c0.101,1.527,1.178,5.049,1.882,6.598c0.128,0.281,0.012,0.435-0.297,0.389
			c-0.119-0.019-0.232-0.031-0.343-0.04c-0.31-0.024-0.548,0.245-0.478,0.545c0.355,1.508,1.738,4.082,3.029,5.686
			c0.193,0.242,0.116,0.379-0.189,0.339c-0.288-0.037-0.514-0.055-0.713-0.064c-0.31-0.019-0.478,0.205-0.337,0.48
			c1.104,2.213,4.101,4.52,5.426,5.521c0.248,0.187,0.195,0.343-0.113,0.382c-0.272,0.037-0.526,0.095-0.774,0.181
			c-0.294,0.104-0.33,0.401-0.098,0.603c3.249,2.827,8.421,1.71,14.676,0.991c0.309-0.037,0.438-0.294,0.294-0.566l-5.031-6.791
			c-0.144-0.275-0.024-0.419,0.272-0.321L373.637,96.289z"/>
		<path d="M156.661,221.648l-6.79,5.03c-0.275,0.144-0.419,0.024-0.321-0.272l3.709-7.448c0.095-0.294-0.077-0.529-0.386-0.514
			c-6.163,0.294-11.337-0.073-14.088,3.158c-0.202,0.235-0.119,0.526,0.187,0.584c0.254,0.049,0.511,0.067,0.792,0.062
			c0.309-0.006,0.385,0.141,0.168,0.364c-1.16,1.187-3.779,3.917-4.541,6.27c-0.095,0.294,0.104,0.49,0.407,0.426
			c0.193-0.04,0.413-0.092,0.691-0.171c0.297-0.086,0.398,0.04,0.242,0.309c-1.037,1.778-2.02,4.529-2.145,6.071
			c-0.024,0.309,0.251,0.539,0.551,0.468c0.107-0.024,0.217-0.055,0.333-0.092c0.297-0.092,0.435,0.043,0.349,0.34
			c-0.465,1.637-1.007,5.281-0.878,6.805c0.027,0.309,0.364,0.597,0.673,0.579c1.527-0.101,5.049-1.178,6.597-1.882
			c0.282-0.128,0.435-0.012,0.389,0.297c-0.019,0.12-0.031,0.233-0.04,0.343c-0.024,0.309,0.245,0.548,0.545,0.478
			c1.509-0.355,4.079-1.738,5.686-3.026c0.242-0.196,0.379-0.116,0.34,0.189c-0.037,0.288-0.055,0.514-0.067,0.713
			c-0.019,0.309,0.205,0.477,0.48,0.336c2.212-1.104,4.52-4.101,5.52-5.425c0.187-0.248,0.343-0.196,0.382,0.11
			c0.037,0.272,0.092,0.526,0.181,0.774c0.104,0.293,0.401,0.331,0.603,0.098c2.827-3.25,1.71-8.421,0.991-14.676
			C157.194,221.633,156.937,221.501,156.661,221.648z"/>
		<path d="M168.054,125.791c0.128-0.281-0.055-0.593-0.364-0.627c-0.107-0.012-0.223-0.021-0.343-0.024
			c-0.309-0.012-0.395-0.184-0.217-0.438c0.985-1.386,2.717-4.636,3.106-6.117c0.08-0.3-0.141-0.686-0.438-0.771
			c-1.472-0.417-5.15-0.582-6.845-0.435c-0.309,0.027-0.413-0.135-0.266-0.407c0.058-0.107,0.107-0.211,0.153-0.309
			c0.128-0.282-0.046-0.597-0.355-0.63c-1.539-0.171-4.428,0.27-6.371,0.949c-0.294,0.101-0.398-0.019-0.257-0.294
			c0.132-0.257,0.224-0.465,0.3-0.648c0.12-0.288-0.03-0.521-0.339-0.48c-2.458,0.3-5.634,2.35-7.02,3.262
			c-0.26,0.171-0.392,0.067-0.324-0.235c0.062-0.275,0.092-0.53,0.092-0.79c0-0.309-0.266-0.447-0.539-0.294
			c-3.696,2.084-4.321,7.234-5.783,13.229c-0.074,0.3,0.123,0.517,0.431,0.478l8.021-2.222c0.309-0.04,0.398,0.125,0.205,0.367
			l-6.23,5.707c-0.196,0.242-0.116,0.52,0.181,0.612c6.001,1.9,10.866,3.981,14.596,1.824c0.27-0.156,0.288-0.456,0.021-0.612
			c-0.227-0.135-0.465-0.239-0.725-0.325c-0.294-0.098-0.315-0.26-0.037-0.397c1.49-0.731,4.872-2.424,6.377-4.385
			c0.189-0.245,0.067-0.496-0.239-0.539c-0.196-0.027-0.422-0.055-0.713-0.07c-0.309-0.019-0.361-0.171-0.123-0.37
			C165.569,129.466,167.417,127.201,168.054,125.791z"/>
		<path d="M146.771,81.84l8.02-2.222c0.309-0.04,0.401,0.125,0.205,0.367l-6.23,5.707c-0.196,0.242-0.116,0.52,0.181,0.612
			c6,1.9,10.866,3.981,14.596,1.824c0.27-0.156,0.288-0.456,0.019-0.612c-0.227-0.135-0.465-0.239-0.725-0.324
			c-0.294-0.098-0.315-0.26-0.037-0.398c1.49-0.731,4.872-2.423,6.377-4.385c0.189-0.245,0.067-0.496-0.239-0.539
			c-0.196-0.028-0.422-0.052-0.713-0.071c-0.309-0.018-0.361-0.171-0.123-0.37c1.573-1.328,3.421-3.592,4.055-5.003
			c0.128-0.282-0.055-0.594-0.364-0.627c-0.107-0.012-0.224-0.021-0.343-0.024c-0.309-0.012-0.395-0.184-0.217-0.438
			c0.985-1.386,2.717-4.636,3.106-6.117c0.08-0.3-0.141-0.685-0.438-0.771c-1.472-0.416-5.153-0.581-6.845-0.435
			c-0.309,0.028-0.413-0.135-0.27-0.407c0.058-0.107,0.107-0.211,0.153-0.309c0.128-0.282-0.046-0.597-0.355-0.63
			c-1.539-0.171-4.428,0.269-6.371,0.949c-0.294,0.101-0.398-0.019-0.257-0.294c0.131-0.257,0.223-0.465,0.3-0.649
			c0.119-0.288-0.031-0.52-0.34-0.48c-2.454,0.3-5.633,2.35-7.02,3.262c-0.26,0.171-0.392,0.067-0.324-0.236
			c0.061-0.275,0.092-0.529,0.092-0.789c0-0.309-0.267-0.447-0.539-0.294c-3.697,2.084-4.321,7.234-5.784,13.229
			C146.267,81.662,146.465,81.88,146.771,81.84z"/>
		<path d="M367.982,249.932c-0.036,0.309,0.196,0.459,0.48,0.34c0.181-0.077,0.389-0.168,0.649-0.3
			c0.275-0.141,0.397-0.037,0.293,0.257c-0.676,1.943-1.116,4.832-0.948,6.371c0.034,0.309,0.349,0.483,0.63,0.355
			c0.099-0.046,0.202-0.095,0.31-0.153c0.272-0.146,0.435-0.04,0.407,0.27c-0.145,1.695,0.018,5.376,0.435,6.845
			c0.085,0.3,0.471,0.517,0.771,0.438c1.481-0.389,4.731-2.121,6.117-3.106c0.254-0.181,0.426-0.095,0.438,0.217
			c0.006,0.119,0.016,0.236,0.024,0.343c0.034,0.309,0.343,0.49,0.628,0.364c1.413-0.637,3.675-2.485,5.003-4.055
			c0.198-0.235,0.352-0.187,0.37,0.123c0.019,0.291,0.046,0.517,0.07,0.713c0.043,0.306,0.291,0.428,0.538,0.239
			c1.962-1.505,3.657-4.887,4.386-6.377c0.138-0.279,0.3-0.257,0.397,0.037c0.086,0.26,0.192,0.499,0.324,0.725
			c0.156,0.266,0.456,0.248,0.612-0.021c2.157-3.73,0.076-8.592-1.824-14.596c-0.095-0.297-0.373-0.373-0.611-0.18l-5.707,6.23
			c-0.242,0.196-0.407,0.104-0.367-0.205l2.222-8.02c0.039-0.309-0.178-0.505-0.478-0.432c-5.995,1.462-11.145,2.087-13.229,5.783
			c-0.153,0.27-0.016,0.539,0.294,0.539c0.26,0,0.514-0.03,0.789-0.092c0.303-0.067,0.407,0.064,0.235,0.325
			C370.333,244.298,368.282,247.475,367.982,249.932z"/>
		<path d="M369.965,293.038c-0.211,0.175-0.395,0.358-0.561,0.566c-0.192,0.241-0.066,0.514,0.239,0.562
			c4.257,0.661,8.038-3.038,12.946-6.979c0.242-0.193,0.215-0.483-0.055-0.637l-7.873-3.066c-0.27-0.156-0.242-0.343,0.058-0.416
			l8.28-0.829c0.3-0.076,0.407-0.346,0.229-0.6c-3.531-5.059-5.976-9.636-10.178-10.242c-0.306-0.042-0.508,0.178-0.395,0.468
			c0.095,0.242,0.215,0.468,0.37,0.704c0.172,0.257,0.086,0.401-0.217,0.336c-1.622-0.349-5.327-1.111-7.724-0.502
			c-0.3,0.077-0.358,0.349-0.144,0.572c0.138,0.141,0.297,0.303,0.514,0.496c0.232,0.208,0.178,0.358-0.131,0.367
			c-2.057,0.071-4.908,0.704-6.282,1.42c-0.275,0.144-0.325,0.499-0.104,0.716c0.08,0.076,0.162,0.156,0.254,0.232
			c0.235,0.202,0.196,0.389-0.101,0.478c-1.635,0.477-5.003,1.961-6.225,2.883c-0.247,0.187-0.312,0.627-0.131,0.878
			c0.899,1.239,3.687,3.645,5.106,4.581c0.261,0.171,0.242,0.36-0.043,0.486c-0.109,0.049-0.214,0.098-0.309,0.146
			c-0.275,0.144-0.334,0.499-0.113,0.716c1.104,1.087,3.645,2.528,5.591,3.198c0.294,0.101,0.303,0.26,0.019,0.392
			c-0.264,0.122-0.466,0.229-0.64,0.324c-0.272,0.15-0.294,0.426-0.031,0.588c2.115,1.285,5.879,1.64,7.534,1.78
			C370.165,292.68,370.204,292.839,369.965,293.038z"/>
		<path d="M67.358,130.359c0.309,0,0.471-0.242,0.361-0.533l-4.073-7.258c-0.11-0.291,0.027-0.419,0.309-0.288l7.029,4.688
			c0.281,0.132,0.532-0.012,0.554-0.321c0.41-6.282,1.27-11.502-1.713-14.608c-0.214-0.224-0.511-0.171-0.6,0.125
			c-0.073,0.254-0.119,0.508-0.141,0.783c-0.024,0.309-0.177,0.367-0.376,0.132c-1.065-1.273-3.516-4.153-5.783-5.147
			c-0.285-0.125-0.496,0.052-0.465,0.361c0.021,0.196,0.049,0.422,0.101,0.71c0.055,0.306-0.08,0.392-0.331,0.208
			c-1.665-1.208-4.305-2.463-5.826-2.742c-0.306-0.055-0.563,0.196-0.523,0.502c0.015,0.107,0.034,0.22,0.058,0.34
			c0.061,0.303-0.086,0.428-0.374,0.315c-1.582-0.627-5.15-1.53-6.683-1.554c-0.309-0.006-0.633,0.3-0.643,0.609
			c-0.052,1.527,0.667,5.141,1.212,6.753c0.098,0.293-0.031,0.435-0.333,0.358c-0.116-0.031-0.229-0.055-0.337-0.074
			c-0.306-0.055-0.569,0.187-0.526,0.496c0.202,1.536,1.319,4.235,2.442,5.958c0.168,0.26,0.076,0.392-0.224,0.321
			c-0.282-0.067-0.505-0.107-0.701-0.138c-0.306-0.049-0.496,0.156-0.386,0.447c0.878,2.313,3.626,4.908,4.844,6.038
			c0.227,0.211,0.159,0.364-0.15,0.37c-0.282,0.006-0.536,0.037-0.79,0.101c-0.303,0.073-0.37,0.367-0.156,0.59
			C56.036,130.996,61.186,130.372,67.358,130.359z"/>
		<path d="M120.819,119.588l7.029,4.688c0.282,0.132,0.533-0.012,0.554-0.321c0.41-6.282,1.27-11.502-1.714-14.608
			c-0.214-0.223-0.511-0.171-0.6,0.125c-0.077,0.254-0.119,0.508-0.144,0.783c-0.024,0.309-0.177,0.367-0.376,0.132
			c-1.065-1.273-3.516-4.152-5.784-5.147c-0.285-0.125-0.496,0.052-0.465,0.361c0.021,0.196,0.049,0.422,0.101,0.71
			c0.055,0.306-0.08,0.389-0.33,0.208c-1.665-1.208-4.303-2.463-5.827-2.742c-0.306-0.055-0.563,0.196-0.52,0.502
			c0.015,0.107,0.034,0.22,0.055,0.34c0.061,0.303-0.086,0.428-0.374,0.315c-1.582-0.627-5.15-1.53-6.68-1.554
			c-0.309-0.006-0.634,0.3-0.643,0.609c-0.052,1.527,0.667,5.141,1.211,6.753c0.098,0.293-0.03,0.435-0.331,0.358
			c-0.119-0.031-0.229-0.055-0.339-0.073c-0.306-0.055-0.569,0.187-0.526,0.496c0.202,1.536,1.319,4.235,2.442,5.958
			c0.168,0.26,0.077,0.392-0.224,0.321c-0.281-0.067-0.505-0.104-0.701-0.138c-0.306-0.049-0.496,0.156-0.385,0.447
			c0.878,2.313,3.626,4.909,4.844,6.038c0.227,0.211,0.159,0.364-0.15,0.373c-0.281,0.006-0.536,0.037-0.79,0.098
			c-0.3,0.074-0.367,0.367-0.156,0.594c2.907,3.094,8.057,2.469,14.226,2.457c0.309,0,0.471-0.242,0.361-0.532l-4.073-7.258
			C120.4,119.585,120.538,119.457,120.819,119.588z"/>
		<path d="M96.22,173.747c-1.579-0.627-5.15-1.53-6.68-1.555c-0.309-0.006-0.633,0.3-0.643,0.609
			c-0.055,1.527,0.667,5.141,1.212,6.753c0.098,0.294-0.031,0.435-0.331,0.358c-0.116-0.031-0.229-0.055-0.336-0.074
			c-0.306-0.055-0.569,0.187-0.529,0.496c0.202,1.536,1.319,4.235,2.442,5.958c0.168,0.26,0.076,0.392-0.227,0.321
			c-0.282-0.067-0.505-0.107-0.701-0.138c-0.306-0.049-0.496,0.156-0.386,0.447c0.878,2.313,3.626,4.908,4.844,6.038
			c0.226,0.211,0.159,0.364-0.15,0.37c-0.281,0.006-0.535,0.037-0.789,0.101c-0.303,0.073-0.371,0.367-0.156,0.59
			c2.907,3.094,8.057,2.47,14.229,2.457c0.309,0,0.471-0.242,0.361-0.532l-4.073-7.258c-0.11-0.291,0.028-0.419,0.309-0.288
			l7.029,4.688c0.282,0.131,0.533-0.012,0.551-0.321c0.41-6.282,1.27-11.503-1.713-14.609c-0.214-0.223-0.511-0.171-0.6,0.126
			c-0.077,0.254-0.12,0.508-0.144,0.783c-0.024,0.309-0.177,0.367-0.376,0.131c-1.065-1.273-3.516-4.152-5.783-5.147
			c-0.285-0.125-0.499,0.052-0.465,0.361c0.021,0.196,0.049,0.422,0.101,0.71c0.055,0.306-0.08,0.392-0.331,0.208
			c-1.665-1.209-4.305-2.463-5.826-2.742c-0.306-0.055-0.563,0.196-0.523,0.501c0.016,0.107,0.034,0.221,0.058,0.34
			C96.655,173.735,96.508,173.86,96.22,173.747z"/>
		<path d="M98.417,220.201c0.221-0.22,0.163-0.505-0.122-0.63l-8.011-2.252c-0.285-0.125-0.275-0.315,0.015-0.422l8.287-1.655
			c0.291-0.107,0.367-0.386,0.162-0.618c-4.152-4.734-7.237-9.03-11.542-9.119c-0.309-0.006-0.48,0.239-0.333,0.514
			c0.125,0.232,0.275,0.444,0.453,0.655c0.202,0.236,0.135,0.386-0.174,0.358c-1.652-0.146-5.422-0.45-7.729,0.45
			c-0.288,0.113-0.315,0.389-0.074,0.584c0.153,0.125,0.333,0.263,0.572,0.431c0.254,0.178,0.22,0.334-0.085,0.383
			c-2.032,0.321-4.786,1.3-6.059,2.182c-0.254,0.178-0.26,0.536-0.012,0.725c0.086,0.067,0.181,0.132,0.279,0.199
			c0.257,0.171,0.242,0.364-0.043,0.486c-1.561,0.673-4.725,2.561-5.823,3.626c-0.224,0.214-0.236,0.661-0.024,0.888
			c1.043,1.117,4.106,3.164,5.633,3.917c0.278,0.138,0.285,0.331,0.019,0.487c-0.104,0.061-0.202,0.125-0.291,0.187
			c-0.254,0.177-0.269,0.536-0.021,0.722c1.227,0.942,3.926,2.062,5.939,2.488c0.303,0.064,0.33,0.223,0.067,0.386
			c-0.245,0.153-0.431,0.281-0.59,0.397c-0.251,0.184-0.242,0.462,0.043,0.587c2.255,1.016,6.037,0.906,7.696,0.845
			c0.309-0.012,0.37,0.144,0.156,0.37c-0.192,0.205-0.352,0.407-0.486,0.627c-0.162,0.266-0.003,0.52,0.309,0.529
			C90.862,228.652,94.063,224.57,98.417,220.201z"/>
		<path d="M126.686,67.271c-0.214-0.223-0.511-0.171-0.6,0.125c-0.077,0.254-0.12,0.508-0.144,0.784
			c-0.024,0.309-0.177,0.367-0.376,0.131c-1.065-1.273-3.516-4.152-5.783-5.147c-0.285-0.125-0.496,0.052-0.465,0.361
			c0.021,0.196,0.049,0.422,0.101,0.71c0.055,0.306-0.08,0.389-0.331,0.208c-1.665-1.209-4.302-2.463-5.826-2.742
			c-0.306-0.055-0.563,0.196-0.52,0.502c0.015,0.107,0.034,0.22,0.055,0.339c0.061,0.303-0.086,0.428-0.374,0.315
			c-1.582-0.627-5.15-1.53-6.68-1.555c-0.309-0.006-0.633,0.3-0.643,0.609c-0.052,1.527,0.667,5.141,1.212,6.753
			c0.098,0.294-0.031,0.435-0.331,0.358c-0.119-0.03-0.229-0.055-0.339-0.073c-0.306-0.055-0.569,0.187-0.526,0.496
			c0.202,1.536,1.319,4.235,2.442,5.958c0.168,0.26,0.076,0.392-0.224,0.321c-0.281-0.067-0.505-0.104-0.701-0.138
			c-0.306-0.049-0.496,0.156-0.386,0.447c0.878,2.313,3.626,4.908,4.844,6.037c0.227,0.211,0.159,0.364-0.15,0.374
			c-0.282,0.006-0.536,0.037-0.79,0.098c-0.3,0.073-0.367,0.367-0.156,0.593c2.907,3.094,8.057,2.47,14.226,2.458
			c0.309,0,0.471-0.242,0.361-0.533l-4.073-7.258c-0.11-0.291,0.028-0.419,0.309-0.288l7.029,4.688
			c0.282,0.131,0.533-0.012,0.554-0.321C128.812,75.598,129.672,70.377,126.686,67.271z"/>
		<path d="M249.269,166.917c0.086,0.3,0.471,0.517,0.771,0.438c1.481-0.389,4.731-2.121,6.117-3.106
			c0.254-0.18,0.425-0.095,0.438,0.217c0.006,0.12,0.015,0.236,0.024,0.343c0.034,0.309,0.343,0.49,0.627,0.364
			c1.414-0.637,3.675-2.485,5.003-4.055c0.199-0.235,0.352-0.187,0.371,0.123c0.018,0.291,0.046,0.517,0.07,0.713
			c0.042,0.306,0.291,0.429,0.539,0.239c1.961-1.505,3.657-4.887,4.385-6.377c0.138-0.278,0.3-0.257,0.398,0.037
			c0.085,0.26,0.193,0.499,0.324,0.725c0.156,0.27,0.456,0.248,0.612-0.021c2.157-3.73,0.076-8.592-1.824-14.596
			c-0.095-0.296-0.37-0.373-0.612-0.18l-5.707,6.23c-0.242,0.196-0.407,0.104-0.367-0.205l2.222-8.02
			c0.04-0.309-0.177-0.505-0.478-0.432c-5.994,1.463-11.145,2.087-13.228,5.783c-0.153,0.27-0.016,0.539,0.293,0.539
			c0.26,0,0.514-0.03,0.79-0.092c0.303-0.067,0.407,0.067,0.236,0.325c-0.912,1.386-2.962,4.565-3.262,7.02
			c-0.037,0.309,0.196,0.459,0.48,0.34c0.184-0.077,0.389-0.168,0.649-0.3c0.275-0.141,0.397-0.037,0.293,0.257
			c-0.679,1.943-1.12,4.832-0.948,6.371c0.034,0.309,0.349,0.483,0.63,0.354c0.101-0.046,0.202-0.095,0.312-0.153
			c0.272-0.147,0.435-0.04,0.407,0.269C248.688,161.764,248.85,165.445,249.269,166.917z"/>
		<path d="M188.635,153.802c3.773-2.078,4.51-7.316,5.988-13.433c0.074-0.303-0.125-0.514-0.431-0.471l-8.106,2.384
			c-0.306,0.042-0.401-0.123-0.208-0.364l6.05-5.716c0.193-0.245,0.11-0.523-0.187-0.615c-5.888-1.849-10.618-3.979-14.315-1.891
			c-0.269,0.153-0.293,0.453-0.027,0.612c0.223,0.135,0.456,0.239,0.722,0.331c0.294,0.101,0.312,0.266,0.034,0.401
			c-1.5,0.716-4.896,2.375-6.423,4.321c-0.19,0.245-0.07,0.496,0.235,0.542c0.196,0.027,0.419,0.058,0.71,0.08
			c0.309,0.021,0.358,0.174,0.12,0.373c-1.585,1.313-3.455,3.556-4.107,4.96c-0.131,0.281,0.049,0.594,0.355,0.63
			c0.107,0.012,0.224,0.024,0.346,0.031c0.309,0.015,0.392,0.189,0.211,0.44c-1,1.377-2.763,4.611-3.167,6.086
			c-0.083,0.3,0.134,0.686,0.431,0.774c1.469,0.432,5.147,0.634,6.842,0.505c0.309-0.024,0.41,0.138,0.263,0.41
			c-0.058,0.107-0.11,0.208-0.156,0.306c-0.128,0.281,0.04,0.597,0.349,0.636c1.536,0.187,4.431-0.223,6.38-0.881
			c0.294-0.098,0.398,0.021,0.254,0.296c-0.134,0.257-0.229,0.465-0.309,0.646c-0.122,0.284,0.028,0.517,0.337,0.483
			c2.46-0.275,5.658-2.292,7.053-3.191c0.26-0.168,0.389-0.064,0.321,0.238c-0.061,0.267-0.095,0.526-0.098,0.79
			C188.1,153.811,188.366,153.949,188.635,153.802z"/>
		<path d="M258.834,223.123c-0.024,0.309,0.251,0.539,0.551,0.468c0.107-0.024,0.217-0.055,0.333-0.092
			c0.296-0.092,0.434,0.043,0.349,0.34c-0.465,1.637-1.007,5.281-0.878,6.805c0.028,0.309,0.364,0.597,0.673,0.579
			c1.527-0.101,5.049-1.178,6.597-1.882c0.282-0.128,0.435-0.012,0.389,0.297c-0.018,0.12-0.03,0.233-0.04,0.343
			c-0.024,0.309,0.245,0.548,0.544,0.478c1.509-0.355,4.082-1.738,5.686-3.026c0.242-0.193,0.379-0.116,0.34,0.193
			c-0.037,0.288-0.055,0.514-0.064,0.713c-0.018,0.309,0.205,0.478,0.48,0.336c2.213-1.104,4.52-4.1,5.521-5.425
			c0.187-0.248,0.343-0.196,0.382,0.113c0.037,0.272,0.096,0.526,0.181,0.774c0.104,0.293,0.401,0.33,0.606,0.098
			c2.827-3.25,1.71-8.421,0.991-14.676c-0.037-0.309-0.294-0.438-0.566-0.293l-6.79,5.03c-0.275,0.144-0.419,0.024-0.321-0.272
			l3.709-7.448c0.095-0.294-0.076-0.529-0.386-0.514c-6.163,0.294-11.337-0.073-14.088,3.158c-0.202,0.235-0.12,0.526,0.187,0.584
			c0.254,0.049,0.511,0.067,0.792,0.062c0.309-0.006,0.385,0.141,0.168,0.364c-1.16,1.187-3.779,3.917-4.541,6.27
			c-0.095,0.294,0.104,0.49,0.407,0.426c0.193-0.04,0.413-0.092,0.691-0.171c0.297-0.086,0.398,0.04,0.242,0.309
			C259.942,218.83,258.96,221.581,258.834,223.123z"/>
		<path d="M275.031,134.903c-0.192,0.242-0.116,0.52,0.181,0.612c6.001,1.9,10.866,3.981,14.596,1.824
			c0.27-0.156,0.288-0.456,0.021-0.612c-0.227-0.135-0.465-0.239-0.725-0.324c-0.294-0.098-0.315-0.26-0.037-0.398
			c1.49-0.731,4.872-2.423,6.377-4.385c0.189-0.245,0.067-0.496-0.238-0.539c-0.196-0.028-0.423-0.052-0.713-0.071
			c-0.31-0.018-0.361-0.171-0.123-0.37c1.573-1.328,3.421-3.592,4.055-5.003c0.129-0.282-0.055-0.594-0.364-0.627
			c-0.106-0.012-0.223-0.021-0.343-0.024c-0.309-0.012-0.395-0.184-0.217-0.438c0.985-1.386,2.714-4.636,3.105-6.117
			c0.08-0.3-0.141-0.685-0.438-0.771c-1.472-0.416-5.149-0.581-6.845-0.435c-0.31,0.028-0.413-0.135-0.27-0.407
			c0.058-0.107,0.107-0.211,0.153-0.309c0.128-0.282-0.046-0.597-0.355-0.63c-1.539-0.171-4.428,0.269-6.371,0.949
			c-0.293,0.101-0.398-0.019-0.257-0.294c0.132-0.257,0.224-0.465,0.3-0.649c0.119-0.285-0.033-0.52-0.34-0.48
			c-2.454,0.3-5.633,2.35-7.02,3.262c-0.26,0.171-0.392,0.067-0.324-0.236c0.062-0.275,0.092-0.529,0.092-0.79
			c0-0.309-0.266-0.446-0.538-0.293c-3.697,2.084-4.321,7.234-5.784,13.229c-0.074,0.303,0.123,0.517,0.431,0.477l8.021-2.222
			c0.309-0.04,0.397,0.126,0.205,0.367L275.031,134.903z"/>
		<path d="M270.145,104.566c0.08-0.3-0.141-0.686-0.438-0.771c-1.472-0.416-5.15-0.582-6.845-0.435
			c-0.309,0.027-0.413-0.135-0.267-0.407c0.058-0.107,0.107-0.211,0.153-0.31c0.128-0.281-0.046-0.597-0.355-0.63
			c-1.539-0.171-4.428,0.269-6.371,0.948c-0.293,0.101-0.397-0.018-0.257-0.293c0.131-0.257,0.223-0.465,0.3-0.649
			c0.119-0.285-0.031-0.52-0.34-0.48c-2.454,0.3-5.633,2.35-7.02,3.262c-0.26,0.171-0.392,0.067-0.324-0.236
			c0.061-0.275,0.092-0.529,0.092-0.79c0-0.309-0.266-0.447-0.539-0.293c-3.697,2.083-4.321,7.233-5.784,13.228
			c-0.073,0.303,0.123,0.517,0.432,0.478l8.021-2.222c0.309-0.04,0.4,0.125,0.205,0.367l-6.23,5.707
			c-0.196,0.242-0.116,0.52,0.181,0.612c6,1.9,10.866,3.981,14.596,1.824c0.269-0.156,0.288-0.456,0.021-0.612
			c-0.227-0.135-0.465-0.239-0.726-0.324c-0.293-0.098-0.315-0.26-0.037-0.398c1.49-0.731,4.872-2.423,6.377-4.385
			c0.19-0.245,0.067-0.496-0.238-0.539c-0.196-0.028-0.422-0.052-0.713-0.07c-0.309-0.019-0.361-0.171-0.122-0.371
			c1.573-1.328,3.421-3.592,4.054-5.003c0.129-0.282-0.055-0.594-0.364-0.627c-0.107-0.012-0.223-0.021-0.342-0.024
			c-0.309-0.012-0.395-0.184-0.217-0.438C268.027,109.297,269.756,106.047,270.145,104.566z"/>
		<path d="M195.783,111.201c0.41-6.282,1.27-11.502-1.713-14.608c-0.214-0.224-0.511-0.171-0.6,0.125
			c-0.077,0.254-0.12,0.508-0.144,0.783c-0.024,0.309-0.177,0.367-0.376,0.131c-1.065-1.273-3.516-4.152-5.783-5.147
			c-0.285-0.125-0.499,0.052-0.465,0.361c0.021,0.196,0.049,0.422,0.101,0.71c0.055,0.306-0.08,0.392-0.331,0.208
			c-1.665-1.208-4.305-2.463-5.826-2.742c-0.306-0.055-0.563,0.196-0.523,0.502c0.016,0.107,0.034,0.22,0.059,0.339
			c0.061,0.303-0.086,0.429-0.374,0.315c-1.579-0.627-5.15-1.53-6.68-1.555c-0.309-0.006-0.633,0.3-0.643,0.609
			c-0.055,1.527,0.667,5.141,1.212,6.753c0.098,0.294-0.031,0.435-0.331,0.358c-0.116-0.031-0.229-0.055-0.336-0.074
			c-0.306-0.055-0.569,0.187-0.529,0.496c0.202,1.536,1.319,4.235,2.442,5.958c0.168,0.26,0.076,0.392-0.227,0.321
			c-0.282-0.067-0.505-0.107-0.701-0.138c-0.306-0.049-0.496,0.156-0.386,0.447c0.878,2.313,3.626,4.908,4.844,6.038
			c0.226,0.211,0.159,0.364-0.15,0.37c-0.282,0.006-0.536,0.037-0.79,0.101c-0.303,0.073-0.371,0.367-0.156,0.593
			c2.907,3.094,8.057,2.47,14.229,2.458c0.309,0,0.471-0.242,0.361-0.533l-4.073-7.258c-0.11-0.291,0.028-0.419,0.309-0.288
			l7.029,4.688C195.514,111.653,195.765,111.51,195.783,111.201z"/>
		<path d="M219.101,148.939c-0.3,0.073-0.37,0.367-0.156,0.594c2.907,3.094,8.057,2.469,14.229,2.457
			c0.309,0,0.471-0.242,0.361-0.532l-4.073-7.258c-0.11-0.291,0.027-0.419,0.309-0.288l7.029,4.688
			c0.281,0.132,0.532-0.012,0.554-0.321c0.41-6.282,1.27-11.502-1.714-14.608c-0.214-0.223-0.511-0.171-0.6,0.125
			c-0.073,0.254-0.119,0.508-0.141,0.784c-0.024,0.309-0.178,0.367-0.376,0.131c-1.065-1.273-3.516-4.152-5.783-5.147
			c-0.285-0.125-0.496,0.052-0.465,0.361c0.021,0.196,0.049,0.422,0.101,0.71c0.055,0.306-0.08,0.392-0.331,0.208
			c-1.665-1.209-4.305-2.463-5.826-2.742c-0.306-0.055-0.563,0.196-0.523,0.501c0.016,0.107,0.034,0.221,0.058,0.34
			c0.062,0.303-0.085,0.429-0.373,0.315c-1.582-0.627-5.15-1.53-6.683-1.555c-0.309-0.006-0.633,0.3-0.643,0.609
			c-0.052,1.527,0.667,5.141,1.212,6.753c0.098,0.294-0.031,0.435-0.334,0.358c-0.116-0.03-0.229-0.055-0.336-0.073
			c-0.306-0.055-0.569,0.187-0.526,0.496c0.202,1.536,1.319,4.235,2.442,5.958c0.168,0.26,0.077,0.392-0.223,0.321
			c-0.282-0.067-0.505-0.107-0.701-0.138c-0.306-0.049-0.496,0.156-0.386,0.447c0.878,2.313,3.626,4.908,4.844,6.037
			c0.227,0.211,0.159,0.364-0.15,0.371C219.605,148.848,219.352,148.878,219.101,148.939z"/>
		<path d="M271.797,86.216c0.41-6.282,1.27-11.503-1.714-14.608c-0.214-0.224-0.511-0.171-0.6,0.125
			c-0.073,0.254-0.119,0.508-0.144,0.784c-0.024,0.309-0.178,0.367-0.376,0.131c-1.065-1.273-3.516-4.152-5.784-5.147
			c-0.284-0.125-0.499,0.052-0.465,0.361c0.021,0.196,0.049,0.422,0.101,0.71c0.055,0.306-0.08,0.392-0.331,0.208
			c-1.665-1.208-4.306-2.463-5.826-2.742c-0.306-0.055-0.563,0.196-0.523,0.502c0.015,0.107,0.034,0.22,0.058,0.339
			c0.061,0.303-0.085,0.429-0.373,0.315c-1.579-0.627-5.15-1.53-6.68-1.555c-0.309-0.006-0.633,0.3-0.643,0.609
			c-0.055,1.527,0.667,5.141,1.212,6.753c0.098,0.294-0.031,0.435-0.331,0.358c-0.116-0.03-0.229-0.055-0.337-0.073
			c-0.306-0.055-0.569,0.187-0.526,0.496c0.202,1.536,1.319,4.235,2.441,5.958c0.168,0.26,0.077,0.392-0.226,0.321
			c-0.282-0.067-0.505-0.107-0.701-0.138c-0.306-0.049-0.496,0.156-0.386,0.447c0.878,2.313,3.626,4.908,4.844,6.037
			c0.226,0.211,0.159,0.364-0.15,0.371c-0.281,0.006-0.535,0.037-0.789,0.101c-0.303,0.073-0.371,0.367-0.156,0.593
			c2.907,3.094,8.057,2.47,14.229,2.458c0.309,0,0.471-0.242,0.361-0.533l-4.073-7.258c-0.11-0.291,0.028-0.419,0.309-0.288
			l7.029,4.688C271.524,86.668,271.775,86.525,271.797,86.216z"/>
		<path d="M234.982,176.011l7.029,4.688c0.282,0.132,0.533-0.012,0.554-0.321c0.41-6.282,1.27-11.502-1.713-14.608
			c-0.214-0.224-0.511-0.171-0.6,0.125c-0.077,0.254-0.12,0.508-0.144,0.783c-0.024,0.309-0.177,0.367-0.376,0.132
			c-1.065-1.273-3.516-4.153-5.783-5.147c-0.285-0.125-0.496,0.052-0.465,0.361c0.021,0.196,0.049,0.422,0.101,0.71
			c0.055,0.306-0.08,0.392-0.331,0.208c-1.665-1.208-4.302-2.463-5.826-2.742c-0.306-0.055-0.563,0.196-0.52,0.502
			c0.015,0.107,0.034,0.22,0.055,0.34c0.061,0.303-0.086,0.428-0.374,0.315c-1.579-0.627-5.15-1.53-6.68-1.554
			c-0.309-0.006-0.633,0.3-0.643,0.609c-0.052,1.527,0.667,5.141,1.212,6.753c0.098,0.293-0.031,0.435-0.331,0.358
			c-0.119-0.031-0.229-0.055-0.336-0.074c-0.306-0.055-0.569,0.187-0.526,0.496c0.202,1.536,1.319,4.235,2.442,5.958
			c0.168,0.26,0.077,0.392-0.223,0.321c-0.282-0.067-0.505-0.107-0.701-0.138c-0.306-0.049-0.496,0.156-0.385,0.447
			c0.878,2.313,3.626,4.908,4.844,6.038c0.227,0.211,0.159,0.364-0.15,0.37c-0.281,0.006-0.536,0.037-0.79,0.101
			c-0.303,0.073-0.37,0.367-0.156,0.594c2.907,3.094,8.057,2.469,14.226,2.457c0.309,0,0.472-0.242,0.361-0.532l-4.073-7.258
			C234.562,176.008,234.701,175.88,234.982,176.011z"/>
		<path d="M303.933,84.208c-0.076,0.254-0.119,0.508-0.144,0.783c-0.024,0.309-0.178,0.367-0.376,0.131
			c-1.065-1.273-3.517-4.152-5.784-5.146c-0.284-0.126-0.495,0.052-0.465,0.361c0.021,0.196,0.049,0.422,0.102,0.71
			c0.055,0.306-0.08,0.392-0.331,0.208c-1.664-1.208-4.302-2.463-5.826-2.742c-0.306-0.055-0.562,0.196-0.523,0.502
			c0.016,0.107,0.034,0.22,0.059,0.339c0.061,0.303-0.086,0.429-0.373,0.315c-1.582-0.627-5.151-1.53-6.681-1.555
			c-0.309-0.006-0.633,0.3-0.643,0.609c-0.052,1.527,0.667,5.141,1.212,6.753c0.098,0.294-0.03,0.435-0.333,0.358
			c-0.117-0.031-0.229-0.055-0.337-0.074c-0.306-0.055-0.569,0.187-0.526,0.496c0.202,1.536,1.318,4.235,2.441,5.958
			c0.169,0.26,0.077,0.392-0.223,0.321c-0.282-0.067-0.505-0.104-0.701-0.138c-0.306-0.049-0.496,0.156-0.386,0.447
			c0.879,2.313,3.626,4.908,4.845,6.038c0.226,0.211,0.158,0.364-0.15,0.37c-0.281,0.006-0.535,0.037-0.789,0.101
			c-0.301,0.073-0.367,0.367-0.156,0.594c2.906,3.093,8.057,2.469,14.226,2.457c0.31,0,0.472-0.242,0.361-0.533l-4.073-7.258
			c-0.11-0.291,0.027-0.419,0.31-0.288l7.028,4.688c0.281,0.132,0.532-0.012,0.554-0.321c0.41-6.282,1.271-11.502-1.713-14.608
			C304.316,83.859,304.019,83.912,303.933,84.208z"/>
		<path d="M346.073,61.127l1.056-13.394c0.11-0.489,0.413-0.535,0.67-0.107l5.221,12.604c0.26,0.429,0.726,0.462,1.028,0.064
			c6.193-8.06,12.035-14.29,10.823-21.139c-0.089-0.493-0.533-0.688-0.918-0.367c-0.328,0.272-0.618,0.576-0.894,0.921
			c-0.312,0.392-0.572,0.333-0.625-0.166c-0.284-2.665-0.988-8.73-3.136-12.099c-0.27-0.422-0.713-0.376-0.949,0.067
			c-0.149,0.281-0.314,0.612-0.502,1.043c-0.198,0.459-0.459,0.453-0.63-0.019c-1.147-3.118-3.562-7.172-5.355-8.914
			c-0.357-0.349-0.93-0.242-1.15,0.205c-0.076,0.156-0.156,0.327-0.229,0.505c-0.189,0.462-0.499,0.499-0.783,0.085
			c-1.558-2.261-5.535-6.68-7.567-8.087c-0.413-0.285-1.117-0.166-1.41,0.242c-1.444,2.001-3.725,7.497-4.44,10.147
			c-0.132,0.483-0.432,0.554-0.765,0.181c-0.132-0.147-0.261-0.282-0.386-0.404c-0.358-0.349-0.931-0.257-1.153,0.19
			c-1.108,2.24-2.032,6.867-2.078,10.187c-0.006,0.502-0.248,0.594-0.591,0.227c-0.318-0.343-0.584-0.597-0.817-0.811
			c-0.367-0.339-0.805-0.238-0.918,0.251c-0.899,3.893,0.456,9.844,1.077,12.451c0.116,0.487-0.112,0.63-0.535,0.364
			c-0.386-0.245-0.753-0.432-1.147-0.575c-0.472-0.171-0.823,0.159-0.743,0.655c1.123,6.759,8.592,10.551,16.882,16.077
			C345.528,61.794,345.962,61.613,346.073,61.127z"/>
		<path d="M442.454,23.259c0.079-0.3-0.141-0.686-0.44-0.771c-1.472-0.417-5.15-0.582-6.846-0.435
			c-0.309,0.027-0.413-0.135-0.27-0.407c0.059-0.107,0.107-0.211,0.153-0.309c0.129-0.281-0.046-0.597-0.354-0.63
			c-1.539-0.171-4.428,0.27-6.371,0.949c-0.294,0.101-0.397-0.019-0.257-0.294c0.131-0.257,0.223-0.465,0.3-0.648
			c0.119-0.285-0.034-0.52-0.34-0.48c-2.457,0.3-5.634,2.35-7.02,3.262c-0.261,0.171-0.392,0.067-0.324-0.235
			c0.061-0.275,0.092-0.529,0.092-0.79c0-0.309-0.27-0.447-0.539-0.294c-3.696,2.084-4.32,7.234-5.783,13.229
			c-0.073,0.3,0.122,0.517,0.432,0.478l8.021-2.222c0.309-0.04,0.397,0.125,0.205,0.367l-6.233,5.707
			c-0.193,0.242-0.116,0.52,0.181,0.612c6,1.9,10.865,3.981,14.596,1.824c0.27-0.156,0.288-0.456,0.021-0.612
			c-0.227-0.135-0.465-0.239-0.726-0.325c-0.293-0.098-0.314-0.26-0.036-0.397c1.49-0.731,4.871-2.424,6.377-4.385
			c0.189-0.245,0.067-0.496-0.238-0.539c-0.196-0.027-0.423-0.052-0.714-0.07c-0.309-0.018-0.357-0.171-0.122-0.37
			c1.573-1.328,3.421-3.592,4.055-5.003c0.129-0.282-0.055-0.594-0.364-0.627c-0.107-0.012-0.224-0.021-0.343-0.024
			c-0.309-0.012-0.395-0.184-0.217-0.438C440.333,27.99,442.062,24.74,442.454,23.259z"/>
		<path d="M332.07,76.323l7.029,4.688c0.281,0.131,0.532-0.012,0.551-0.321c0.41-6.282,1.27-11.503-1.714-14.608
			c-0.214-0.224-0.511-0.171-0.6,0.125c-0.076,0.254-0.119,0.508-0.144,0.784c-0.024,0.309-0.178,0.367-0.377,0.131
			c-1.064-1.273-3.516-4.152-5.783-5.146c-0.284-0.126-0.495,0.052-0.465,0.361c0.021,0.196,0.049,0.422,0.101,0.71
			c0.056,0.306-0.079,0.392-0.33,0.208c-1.665-1.208-4.303-2.463-5.826-2.742c-0.307-0.055-0.563,0.196-0.521,0.502
			c0.016,0.107,0.034,0.22,0.059,0.339c0.061,0.303-0.086,0.429-0.374,0.315c-1.579-0.627-5.149-1.53-6.68-1.555
			c-0.309-0.006-0.634,0.3-0.643,0.609c-0.052,1.527,0.667,5.141,1.212,6.753c0.098,0.294-0.03,0.435-0.331,0.358
			c-0.119-0.03-0.229-0.055-0.336-0.073c-0.307-0.055-0.569,0.187-0.526,0.496c0.202,1.536,1.318,4.235,2.441,5.958
			c0.169,0.26,0.077,0.392-0.227,0.321c-0.281-0.067-0.505-0.107-0.7-0.138c-0.306-0.049-0.496,0.156-0.386,0.447
			c0.878,2.313,3.626,4.908,4.844,6.037c0.227,0.211,0.159,0.364-0.149,0.371c-0.285,0.006-0.536,0.037-0.79,0.101
			c-0.303,0.073-0.367,0.367-0.155,0.593c2.906,3.094,8.057,2.47,14.229,2.458c0.309,0,0.472-0.242,0.361-0.533l-4.073-7.258
			C331.651,76.32,331.789,76.191,332.07,76.323z"/>
		<path d="M69.185,94.68c-0.386-0.245-0.753-0.432-1.147-0.575c-0.471-0.171-0.823,0.159-0.741,0.655
			c1.123,6.759,8.593,10.551,16.882,16.077c0.416,0.278,0.851,0.098,0.964-0.392l0.731-9.278c0.881,0.04,1.796,0.055,2.763,0.046
			l3.452,8.335c0.26,0.428,0.725,0.462,1.031,0.064c6.193-8.06,12.035-14.29,10.82-21.142c-0.089-0.493-0.532-0.688-0.918-0.367
			c-0.327,0.272-0.618,0.575-0.894,0.921c-0.312,0.392-0.569,0.333-0.624-0.166c-0.285-2.665-0.988-8.73-3.137-12.099
			c-0.269-0.422-0.716-0.376-0.948,0.067c-0.15,0.282-0.315,0.612-0.502,1.043c-0.199,0.459-0.456,0.453-0.63-0.019
			c-1.147-3.118-3.562-7.172-5.355-8.914c-0.358-0.349-0.93-0.242-1.151,0.205c-0.076,0.156-0.153,0.324-0.229,0.505
			c-0.189,0.462-0.499,0.499-0.783,0.085c-1.558-2.261-5.536-6.68-7.567-8.087c-0.413-0.285-1.12-0.166-1.411,0.242
			c-1.444,2.001-3.724,7.497-4.44,10.147c-0.128,0.483-0.432,0.554-0.765,0.181c-0.131-0.147-0.26-0.282-0.386-0.404
			c-0.358-0.349-0.93-0.257-1.153,0.189c-1.108,2.24-2.035,6.867-2.078,10.187c-0.006,0.502-0.248,0.594-0.591,0.227
			c-0.318-0.343-0.584-0.597-0.817-0.811c-0.367-0.34-0.805-0.239-0.918,0.25c-0.9,3.893,0.456,9.844,1.077,12.451
			C69.837,94.805,69.61,94.949,69.185,94.68z"/>
		<path d="M139.51,53.281c-0.303,0.074-0.37,0.367-0.156,0.594c2.907,3.094,8.057,2.469,14.229,2.457
			c0.309,0,0.471-0.242,0.361-0.532l-4.073-7.255c-0.11-0.291,0.027-0.419,0.309-0.288l7.029,4.688
			c0.282,0.131,0.533-0.012,0.554-0.321c0.41-6.282,1.27-11.502-1.713-14.608c-0.214-0.224-0.511-0.171-0.6,0.125
			c-0.074,0.254-0.12,0.508-0.141,0.783c-0.024,0.309-0.177,0.367-0.376,0.131c-1.065-1.272-3.519-4.152-5.784-5.146
			c-0.285-0.125-0.496,0.052-0.465,0.361c0.021,0.196,0.049,0.422,0.101,0.71c0.055,0.306-0.08,0.392-0.33,0.208
			c-1.665-1.208-4.306-2.463-5.827-2.742c-0.306-0.055-0.563,0.196-0.523,0.502c0.015,0.107,0.034,0.22,0.058,0.34
			c0.061,0.303-0.086,0.428-0.374,0.315c-1.582-0.627-5.15-1.53-6.683-1.555c-0.309-0.006-0.633,0.3-0.643,0.609
			c-0.052,1.527,0.667,5.141,1.212,6.754c0.101,0.293-0.031,0.434-0.331,0.358c-0.116-0.031-0.229-0.055-0.336-0.074
			c-0.306-0.055-0.569,0.187-0.526,0.496c0.202,1.536,1.319,4.235,2.442,5.958c0.168,0.26,0.077,0.392-0.227,0.321
			c-0.281-0.067-0.505-0.107-0.701-0.138c-0.306-0.049-0.496,0.156-0.386,0.447c0.878,2.313,3.626,4.908,4.844,6.038
			c0.227,0.211,0.159,0.364-0.15,0.37C140.015,53.189,139.761,53.22,139.51,53.281z"/>
		<path d="M223.902,43.274l7.029,4.688c0.281,0.132,0.532-0.012,0.554-0.321c0.41-6.282,1.27-11.502-1.713-14.608
			c-0.214-0.223-0.511-0.171-0.6,0.125c-0.073,0.254-0.119,0.508-0.144,0.783c-0.024,0.31-0.178,0.368-0.376,0.132
			c-1.065-1.273-3.516-4.152-5.783-5.147c-0.285-0.125-0.499,0.052-0.465,0.361c0.021,0.196,0.049,0.422,0.101,0.709
			c0.055,0.306-0.08,0.392-0.331,0.208c-1.665-1.209-4.306-2.463-5.826-2.742c-0.306-0.055-0.563,0.196-0.523,0.501
			c0.016,0.107,0.034,0.221,0.058,0.34c0.062,0.303-0.085,0.428-0.373,0.315c-1.579-0.627-5.15-1.53-6.68-1.554
			c-0.309-0.006-0.633,0.3-0.643,0.609c-0.055,1.527,0.667,5.141,1.212,6.753c0.098,0.294-0.031,0.435-0.331,0.358
			c-0.116-0.03-0.229-0.055-0.336-0.073c-0.306-0.055-0.569,0.187-0.526,0.496c0.202,1.536,1.319,4.235,2.442,5.958
			c0.168,0.26,0.076,0.392-0.227,0.321c-0.282-0.067-0.505-0.107-0.701-0.138c-0.306-0.049-0.496,0.156-0.386,0.447
			c0.878,2.313,3.626,4.908,4.844,6.037c0.226,0.211,0.159,0.364-0.15,0.37c-0.282,0.006-0.536,0.037-0.79,0.098
			c-0.303,0.074-0.371,0.367-0.156,0.594c2.907,3.094,8.057,2.469,14.229,2.457c0.309,0,0.471-0.242,0.361-0.532l-4.073-7.258
			C223.482,43.271,223.623,43.143,223.902,43.274z"/>
		<path d="M466.655,54.257c-0.122-0.284-0.397-0.303-0.584-0.055c-0.119,0.159-0.254,0.343-0.413,0.584
			c-0.169,0.26-0.324,0.229-0.383-0.076c-0.383-2.022-1.444-4.743-2.362-5.992c-0.184-0.25-0.542-0.242-0.726,0.009
			c-0.063,0.089-0.128,0.184-0.189,0.285c-0.162,0.263-0.354,0.254-0.486-0.028c-0.722-1.539-2.702-4.645-3.798-5.713
			c-0.223-0.217-0.667-0.214-0.887,0.003c-1.087,1.077-3.039,4.199-3.746,5.747c-0.128,0.281-0.321,0.293-0.486,0.034
			c-0.064-0.104-0.132-0.199-0.195-0.285c-0.184-0.251-0.542-0.254-0.726,0c-0.905,1.254-1.943,3.987-2.308,6.013
			c-0.055,0.306-0.211,0.337-0.382,0.08c-0.159-0.242-0.297-0.422-0.416-0.578c-0.19-0.245-0.469-0.227-0.588,0.058
			c-0.945,2.286-0.726,6.059-0.612,7.717c0.021,0.309-0.131,0.374-0.364,0.168c-0.211-0.19-0.416-0.34-0.643-0.468
			c-0.269-0.153-0.52,0.012-0.52,0.324c-0.003,4.244,4.174,7.323,8.672,11.542c0.227,0.211,0.511,0.146,0.627-0.141l2.011-8.076
			c0.116-0.288,0.306-0.285,0.422,0.003l1.903,8.231c0.113,0.288,0.396,0.355,0.621,0.144c4.605-4.29,8.811-7.503,8.768-11.812
			c-0.003-0.309-0.254-0.475-0.523-0.318c-0.229,0.131-0.438,0.288-0.64,0.471c-0.229,0.208-0.383,0.147-0.364-0.165
			C467.435,60.31,467.622,56.534,466.655,54.257z"/>
		<path d="M315.806,43.076c-0.089-0.493-0.532-0.688-0.918-0.367c-0.327,0.272-0.618,0.575-0.894,0.921
			c-0.312,0.392-0.569,0.333-0.624-0.166c-0.285-2.665-0.988-8.73-3.137-12.099c-0.27-0.422-0.713-0.376-0.948,0.067
			c-0.15,0.284-0.315,0.612-0.502,1.043c-0.199,0.459-0.456,0.453-0.631-0.019c-1.147-3.118-3.562-7.172-5.354-8.914
			c-0.358-0.349-0.931-0.242-1.15,0.205c-0.077,0.156-0.156,0.327-0.229,0.505c-0.19,0.462-0.499,0.499-0.783,0.085
			c-1.558-2.261-5.536-6.68-7.568-8.087c-0.412-0.285-1.116-0.166-1.41,0.242c-1.444,2.001-3.724,7.497-4.44,10.147
			c-0.131,0.483-0.431,0.554-0.765,0.181c-0.132-0.147-0.26-0.282-0.386-0.404c-0.357-0.349-0.93-0.257-1.153,0.19
			c-1.107,2.24-2.032,6.867-2.078,10.187c-0.006,0.502-0.248,0.594-0.59,0.227c-0.318-0.343-0.582-0.597-0.817-0.811
			c-0.367-0.339-0.805-0.238-0.918,0.251c-0.899,3.893,0.456,9.844,1.077,12.451c0.116,0.487-0.113,0.63-0.536,0.364
			c-0.385-0.245-0.752-0.432-1.147-0.575c-0.471-0.171-0.822,0.159-0.74,0.655c1.123,6.759,8.593,10.551,16.882,16.077
			c0.417,0.278,0.851,0.098,0.964-0.392l1.056-13.394c0.11-0.49,0.413-0.536,0.671-0.107l5.22,12.604
			c0.261,0.428,0.726,0.462,1.031,0.064C311.179,56.157,317.021,49.924,315.806,43.076z"/>
		<path d="M206.493,3.011c-0.3,0.085-0.517,0.471-0.438,0.771c0.389,1.481,2.121,4.731,3.106,6.117
			c0.181,0.254,0.095,0.425-0.217,0.438c-0.119,0.006-0.235,0.015-0.343,0.024c-0.309,0.034-0.493,0.343-0.364,0.627
			c0.636,1.411,2.484,3.675,4.054,5.003c0.236,0.199,0.187,0.352-0.123,0.37c-0.291,0.019-0.517,0.046-0.713,0.071
			c-0.306,0.042-0.428,0.291-0.239,0.538c1.506,1.962,4.887,3.657,6.377,4.385c0.278,0.138,0.257,0.3-0.037,0.398
			c-0.26,0.085-0.499,0.192-0.725,0.324c-0.266,0.156-0.248,0.456,0.021,0.612c3.73,2.157,8.592,0.077,14.596-1.824
			c0.297-0.095,0.374-0.37,0.181-0.612l-6.23-5.707c-0.196-0.242-0.104-0.407,0.205-0.367l8.021,2.222
			c0.309,0.04,0.505-0.178,0.431-0.478c-1.462-5.995-2.087-11.145-5.783-13.228c-0.269-0.153-0.539-0.016-0.539,0.293
			c0,0.26,0.031,0.514,0.092,0.79c0.067,0.303-0.064,0.407-0.324,0.235c-1.386-0.912-4.562-2.962-7.02-3.262
			c-0.309-0.037-0.462,0.196-0.34,0.48c0.077,0.184,0.168,0.389,0.3,0.648c0.141,0.275,0.037,0.398-0.257,0.294
			c-1.943-0.679-4.832-1.12-6.371-0.949c-0.309,0.034-0.483,0.349-0.355,0.63c0.046,0.101,0.095,0.202,0.153,0.309
			c0.147,0.272,0.043,0.435-0.269,0.407C211.644,2.43,207.962,2.592,206.493,3.011z"/>
		<path d="M327.422,21.833c0.211-0.226,0.144-0.517-0.156-0.593c-0.254-0.062-0.505-0.092-0.79-0.101
			c-0.309-0.009-0.379-0.159-0.149-0.37c1.218-1.129,3.966-3.724,4.844-6.038c0.11-0.291-0.079-0.493-0.386-0.447
			c-0.195,0.031-0.419,0.07-0.7,0.138c-0.303,0.07-0.395-0.061-0.227-0.321c1.123-1.726,2.24-4.425,2.441-5.958
			c0.04-0.309-0.223-0.551-0.526-0.496c-0.106,0.019-0.22,0.046-0.336,0.074c-0.3,0.076-0.432-0.064-0.331-0.358
			c0.545-1.612,1.268-5.223,1.212-6.753C332.306,0.3,331.985-0.006,331.675,0c-1.53,0.024-5.101,0.927-6.68,1.555
			c-0.288,0.113-0.435-0.009-0.373-0.315c0.024-0.119,0.042-0.232,0.058-0.339c0.04-0.309-0.217-0.56-0.521-0.502
			c-1.523,0.278-4.161,1.533-5.826,2.742c-0.251,0.184-0.386,0.098-0.33-0.208c0.052-0.288,0.079-0.511,0.101-0.71
			c0.034-0.309-0.181-0.486-0.465-0.361c-2.265,0.994-4.719,3.874-5.783,5.147c-0.199,0.238-0.353,0.177-0.377-0.132
			c-0.021-0.272-0.067-0.529-0.144-0.783c-0.089-0.297-0.383-0.352-0.6-0.125c-2.983,3.106-2.127,8.326-1.714,14.608
			c0.021,0.309,0.272,0.453,0.551,0.321l7.029-4.688c0.281-0.132,0.419-0.003,0.309,0.288l-4.072,7.258
			c-0.11,0.291,0.052,0.532,0.36,0.532C319.365,24.303,324.515,24.927,327.422,21.833z"/>
		<path d="M273.801,34.936c-0.395,0.144-0.762,0.331-1.147,0.576c-0.422,0.266-0.652,0.125-0.536-0.364
			c0.618-2.607,1.977-8.562,1.077-12.451c-0.113-0.487-0.551-0.591-0.918-0.251c-0.232,0.217-0.499,0.471-0.817,0.811
			c-0.343,0.367-0.582,0.272-0.591-0.227c-0.043-3.323-0.967-7.947-2.078-10.187c-0.224-0.45-0.796-0.542-1.154-0.189
			c-0.125,0.122-0.257,0.257-0.385,0.404c-0.334,0.374-0.637,0.303-0.765-0.181c-0.716-2.653-2.996-8.146-4.44-10.147
			c-0.294-0.407-1.001-0.526-1.411-0.242c-2.032,1.408-6.01,5.826-7.567,8.088c-0.285,0.413-0.591,0.376-0.784-0.086
			c-0.073-0.181-0.15-0.349-0.229-0.505c-0.223-0.45-0.792-0.554-1.15-0.205c-1.793,1.744-4.208,5.796-5.355,8.914
			c-0.174,0.471-0.432,0.477-0.63,0.018c-0.187-0.431-0.352-0.759-0.502-1.043c-0.232-0.443-0.679-0.489-0.948-0.067
			c-2.146,3.369-2.852,9.434-3.137,12.1c-0.052,0.499-0.312,0.557-0.625,0.165c-0.275-0.346-0.566-0.649-0.893-0.921
			c-0.386-0.318-0.83-0.125-0.918,0.367c-1.215,6.848,4.627,13.082,10.82,21.138c0.306,0.398,0.771,0.364,1.031-0.064l5.22-12.604
			c0.26-0.429,0.56-0.38,0.67,0.107l1.056,13.394c0.113,0.49,0.544,0.667,0.964,0.392c8.287-5.526,15.759-9.318,16.882-16.077
			C274.624,35.095,274.27,34.762,273.801,34.936z"/>
		<path d="M388.934,73.627l7.029,4.688c0.281,0.131,0.532-0.012,0.554-0.321c0.41-6.282,1.27-11.503-1.714-14.609
			c-0.214-0.223-0.511-0.171-0.6,0.126c-0.073,0.254-0.119,0.508-0.141,0.783c-0.024,0.309-0.178,0.367-0.377,0.131
			c-1.064-1.273-3.519-4.152-5.783-5.147c-0.284-0.125-0.496,0.052-0.465,0.361c0.021,0.196,0.049,0.422,0.101,0.71
			c0.056,0.306-0.079,0.392-0.33,0.208c-1.665-1.209-4.306-2.463-5.826-2.742c-0.307-0.055-0.563,0.196-0.523,0.501
			c0.016,0.107,0.033,0.221,0.058,0.34c0.062,0.303-0.085,0.429-0.373,0.315c-1.579-0.627-5.149-1.53-6.68-1.555
			c-0.31-0.006-0.634,0.3-0.643,0.609c-0.052,1.527,0.667,5.141,1.212,6.753c0.101,0.294-0.031,0.435-0.331,0.358
			c-0.116-0.031-0.229-0.055-0.336-0.074c-0.307-0.055-0.569,0.187-0.526,0.496c0.201,1.536,1.318,4.235,2.441,5.958
			c0.168,0.26,0.076,0.392-0.227,0.321c-0.281-0.067-0.505-0.107-0.7-0.138c-0.307-0.049-0.496,0.156-0.386,0.447
			c0.878,2.313,3.626,4.908,4.844,6.037c0.227,0.211,0.159,0.364-0.15,0.371c-0.281,0.006-0.535,0.037-0.789,0.101
			c-0.303,0.074-0.37,0.367-0.156,0.594c2.907,3.094,8.058,2.47,14.229,2.458c0.309,0,0.471-0.242,0.36-0.533l-4.072-7.258
			C388.515,73.624,388.653,73.495,388.934,73.627z"/>
		<path d="M394.8,21.31c-0.214-0.224-0.511-0.171-0.6,0.125c-0.073,0.254-0.12,0.508-0.141,0.783
			c-0.024,0.309-0.178,0.367-0.377,0.132c-1.064-1.273-3.519-4.152-5.783-5.147c-0.284-0.125-0.496,0.052-0.465,0.361
			c0.021,0.196,0.049,0.422,0.101,0.71c0.055,0.306-0.079,0.392-0.33,0.208c-1.665-1.208-4.306-2.463-5.826-2.742
			c-0.307-0.055-0.563,0.196-0.523,0.502c0.015,0.107,0.033,0.22,0.058,0.339c0.062,0.303-0.085,0.429-0.373,0.315
			c-1.579-0.627-5.15-1.53-6.68-1.555c-0.31-0.006-0.634,0.3-0.643,0.609c-0.053,1.527,0.667,5.141,1.212,6.753
			c0.101,0.293-0.031,0.434-0.331,0.358c-0.116-0.031-0.229-0.055-0.337-0.074c-0.306-0.055-0.568,0.187-0.526,0.496
			c0.202,1.536,1.319,4.235,2.442,5.958c0.168,0.26,0.076,0.392-0.227,0.321c-0.281-0.067-0.505-0.107-0.701-0.138
			c-0.306-0.049-0.495,0.156-0.385,0.447c0.878,2.313,3.626,4.908,4.844,6.038c0.227,0.211,0.159,0.364-0.15,0.37
			c-0.281,0.006-0.535,0.037-0.789,0.101c-0.303,0.073-0.37,0.367-0.156,0.594c2.907,3.093,8.057,2.469,14.229,2.457
			c0.309,0,0.471-0.242,0.36-0.533l-4.072-7.258c-0.11-0.291,0.027-0.419,0.309-0.288l7.029,4.688
			c0.281,0.132,0.532-0.012,0.554-0.321C396.927,29.636,397.784,24.416,394.8,21.31z"/>
	</g>
</g>
<g>
</g>
<g>
</g>
<g>
</g>
<g>
</g>
<g>
</g>
<g>
</g>
<g>
</g>
<g>
</g>
<g>
</g>
<g>
</g>
<g>
</g>
<g>
</g>
<g>
</g>
<g>
</g>
<g>
</g>
</svg>
